<?xml version="1.0" encoding="UTF-8" standalone="no"?>
<!DOCTYPE svg PUBLIC "-//W3C//DTD SVG 1.1//EN" "http://www.w3.org/Graphics/SVG/1.1/DTD/svg11.dtd">

<!-- Created with Vectornator (http://vectornator.io/) -->
<svg height="100%" stroke-miterlimit="10" style="fill-rule:nonzero;clip-rule:evenodd;stroke-linecap:round;stroke-linejoin:round;" version="1.1" viewBox="0 0 2048 2048" width="100%" xml:space="preserve" xmlns="http://www.w3.org/2000/svg" xmlns:vectornator="http://vectornator.io" xmlns:xlink="http://www.w3.org/1999/xlink">
<metadata>
<vectornator:setting key="IsTimeLapseWatermarkDisabled" value="false"/>
<vectornator:setting key="UndoHistoryDisabled" value="true"/>
<vectornator:setting key="VNDimensionsVisible" value="true"/>
<vectornator:setting key="VNSnapToGuides" value="true"/>
<vectornator:setting key="WDCMYKEnabledKey" value="false"/>
<vectornator:setting key="WDDisplayWhiteBackground" value="false"/>
<vectornator:setting key="WDDynamicGuides" value="true"/>
<vectornator:setting key="WDGuidesVisible" value="true"/>
<vectornator:setting key="WDIsolateActiveLayer" value="false"/>
<vectornator:setting key="WDOutlineMode" value="false"/>
<vectornator:setting key="WDRulersVisible" value="true"/>
<vectornator:setting key="WDSnapToEdges" value="true"/>
<vectornator:setting key="WDSnapToGrid" value="false"/>
<vectornator:setting key="WDSnapToPoints" value="true"/>
<vectornator:setting key="WDUnits" value="Pixels"/>
</metadata>
<defs>
<clipPath id="TextBounds">
<rect height="250.593" width="238.309" x="512.079" y="763.955"/>
</clipPath>
<clipPath id="TextBounds_2">
<rect height="235.525" width="241.405" x="557.816" y="714.412"/>
</clipPath>
<clipPath id="TextBounds_3">
<rect height="225.616" width="221.901" x="619.183" y="663.635"/>
</clipPath>
<clipPath id="TextBounds_4">
<rect height="244.138" width="199.665" x="761.142" y="595.336"/>
</clipPath>
<clipPath id="TextBounds_5">
<rect height="201.317" width="125.32" x="863.932" y="584.769"/>
</clipPath>
<clipPath id="TextBounds_6">
<rect height="194.678" width="115.828" x="963.918" y="582.457"/>
</clipPath>
<clipPath id="TextBounds_7">
<rect height="195.461" width="97.8839" x="1038.91" y="582.457"/>
</clipPath>
<clipPath id="TextBounds_8">
<rect height="174.796" width="114.135" x="1103.7" y="597.823"/>
</clipPath>
<clipPath id="TextBounds_9">
<rect height="204.96" width="174.792" x="1194.05" y="649.146"/>
</clipPath>
<clipPath id="TextBounds_10">
<rect height="250.383" width="246.071" x="1199.37" y="678.797"/>
</clipPath>
<clipPath id="TextBounds_11">
<rect height="187.068" width="173.193" x="598.346" y="1251.6"/>
</clipPath>
<clipPath id="TextBounds_12">
<rect height="137.466" width="132.932" x="700.925" y="1271.34"/>
</clipPath>
<clipPath id="TextBounds_13">
<rect height="116.179" width="108.565" x="755.166" y="1299.22"/>
</clipPath>
<clipPath id="TextBounds_14">
<rect height="126.769" width="89.2668" x="789.223" y="1322.53"/>
</clipPath>
<clipPath id="TextBounds_15">
<rect height="114.574" width="104.424" x="829.816" y="1334.72"/>
</clipPath>
<clipPath id="TextBounds_16">
<rect height="115.969" width="100.462" x="874.994" y="1348.61"/>
</clipPath>
<clipPath id="TextBounds_17">
<rect height="103.206" width="85.0551" x="956.706" y="1361.37"/>
</clipPath>
<clipPath id="TextBounds_18">
<rect height="94.4858" width="80.6772" x="1001.42" y="1365.73"/>
</clipPath>
<clipPath id="TextBounds_19">
<rect height="113.573" width="95.4419" x="1038.54" y="1358.84"/>
</clipPath>
<clipPath id="TextBounds_20">
<rect height="115.085" width="137.742" x="1056.04" y="1345.13"/>
</clipPath>
<clipPath id="TextBounds_21">
<rect height="136.738" width="173.999" x="1097.37" y="1307.77"/>
</clipPath>
<clipPath id="TextBounds_22">
<rect height="146.5" width="165.86" x="1143.59" y="1287.8"/>
</clipPath>
<clipPath id="TextBounds_23">
<rect height="173.272" width="183.58" x="1170.35" y="1265.36"/>
</clipPath>
<clipPath id="TextBounds_24">
<rect height="153.757" width="161.387" x="1204.33" y="1249.49"/>
</clipPath>
<clipPath id="TextBounds_25">
<rect height="145.915" width="153.906" x="1237.02" y="1224.74"/>
</clipPath>
</defs>
<g id="Ebene-5" vectornator:layerName="Ebene 5">
<path d="M604.122 1332.75L598.346 1325.69C598.346 1325.69 614.152 1304.74 627.903 1290.32C641.655 1275.91 653.352 1268.04 653.352 1268.04C653.352 1268.04 644.394 1267.02 635.245 1264.25C626.095 1261.48 616.754 1256.95 616.754 1256.95C616.754 1256.95 671.408 1264.22 715.137 1260.1C741.165 1257.64 764.105 1244.13 767.192 1241.99C780.221 1232.98 786.881 1224.74 786.881 1224.74L790.03 1244.6C790.03 1244.6 784.416 1251.42 774.3 1259.97C767.768 1265.49 760.149 1272.63 748.3 1276.14C718.099 1285.06 669.228 1280.29 669.228 1280.29C669.228 1280.29 657.066 1289.93 647.644 1298.71C638.221 1307.48 631.539 1315.38 631.539 1315.38L625.679 1308.37C625.679 1308.37 620.99 1311.06 615.601 1317.16C610.212 1323.25 604.122 1332.75 604.122 1332.75Z" fill="#ffffff" fill-rule="evenodd" opacity="1" stroke="none"/>
</g>
<g id="Ebene-5-kopieren" vectornator:layerName="Ebene 5 kopieren">
<path d="M1444 1332.75L1449.77 1325.69C1449.77 1325.69 1433.97 1304.74 1420.21 1290.32C1406.46 1275.91 1394.77 1268.04 1394.77 1268.04C1394.77 1268.04 1403.72 1267.02 1412.87 1264.25C1422.02 1261.48 1431.36 1256.95 1431.36 1256.95C1431.36 1256.95 1376.71 1264.22 1332.98 1260.1C1306.95 1257.64 1284.01 1244.13 1280.93 1241.99C1267.9 1232.98 1261.24 1224.74 1261.24 1224.74L1258.09 1244.6C1258.09 1244.6 1263.7 1251.42 1273.82 1259.97C1280.35 1265.49 1287.97 1272.63 1299.82 1276.14C1330.02 1285.06 1378.89 1280.29 1378.89 1280.29C1378.89 1280.29 1391.05 1289.93 1400.47 1298.71C1409.9 1307.48 1416.58 1315.38 1416.58 1315.38L1422.44 1308.37C1422.44 1308.37 1427.13 1311.06 1432.52 1317.16C1437.91 1323.25 1444 1332.75 1444 1332.75Z" fill="#ffffff" fill-rule="evenodd" opacity="1" stroke="none"/>
</g>
<g id="Ebene-6" vectornator:layerName="Ebene 6">
<path d="M737.371 1144.11C737.371 1144.11 744.072 1138.06 754.55 1133.81C760.133 1131.55 767.732 1130.2 773.871 1129.65C791.529 1128.06 808.005 1137.74 808.005 1137.74L800.559 1145.71C800.559 1145.71 789.996 1138.63 774.199 1138.23C758.402 1137.83 737.371 1144.11 737.371 1144.11Z" fill="#ffffff" fill-rule="evenodd" opacity="1" stroke="none"/>
</g>
<g id="Ebene-6-kopieren" vectornator:layerName="Ebene 6 kopieren">
<path d="M1300.8 1143.49C1300.8 1143.49 1294.1 1137.44 1283.62 1133.19C1278.04 1130.93 1270.44 1129.58 1264.3 1129.03C1246.65 1127.43 1230.17 1137.11 1230.17 1137.11L1237.62 1145.09C1237.62 1145.09 1248.18 1138.01 1263.97 1137.61C1279.77 1137.21 1300.8 1143.49 1300.8 1143.49Z" fill="#ffffff" fill-rule="evenodd" opacity="1" stroke="none"/>
</g>
<g id="Ebene-41" vectornator:layerName="Ebene 41">
<path d="M809.204 1190.91L1238.82 1191.17C1238.82 1191.17 1248.83 1194.75 1255.66 1203.89C1258.68 1207.91 1263.34 1222.02 1261.2 1234.76C1258.82 1248.95 1249.21 1261.83 1244.62 1265.31C1230.52 1276 1212.67 1277.17 1212.67 1277.17L830.244 1276.96C830.244 1276.96 811.894 1275.17 799.298 1261.21C796.541 1258.15 787.753 1246.38 786.312 1235.58C784.329 1220.71 790.545 1205.9 793.713 1202.03C800.11 1194.23 809.204 1190.91 809.204 1190.91Z" fill="#ff8400" fill-rule="evenodd" opacity="1" stroke="none"/>
</g>
<g id="Ebene-40" vectornator:layerName="Ebene 40">
<path d="M806.595 1181.02L901.544 1181.47L811.006 1135.1C811.006 1135.1 805.313 1135.01 802.01 1137.27C798.707 1139.53 797.795 1144.14 797.795 1144.14L795.834 1163.88C795.834 1163.88 796.45 1170.11 799.14 1174.4C801.83 1178.68 806.595 1181.02 806.595 1181.02Z" fill="#914023" fill-rule="evenodd" opacity="1" stroke="none"/>
</g>
<g id="Ebene-39" vectornator:layerName="Ebene 39">
<path d="M1016.38 1181.47L1210.06 1135.01L1232.71 1135.78C1232.71 1135.78 1236.47 1136.07 1238.34 1138.76C1240.21 1141.46 1240.18 1146.57 1240.18 1146.57L1240.29 1162.15C1240.29 1162.15 1239.85 1169.03 1236.92 1173.69C1233.99 1178.34 1228.57 1180.77 1228.57 1180.77L1016.38 1181.47Z" fill="#914023" fill-rule="evenodd" opacity="1" stroke="none"/>
</g>
<g id="Ebene-38" vectornator:layerName="Ebene 38">
<path d="M812.148 1110.13L1225.69 1110.09C1225.69 1110.09 1231.34 1112.6 1231.53 1115.3C1231.72 1118 1226.46 1120.9 1226.46 1120.9L940.806 1187.44L811.177 1122.86C811.177 1122.86 806.294 1118.89 806.536 1115.71C806.779 1112.53 812.148 1110.13 812.148 1110.13Z" fill="#feb200" fill-rule="evenodd" opacity="1" stroke="none"/>
</g>
<g id="Ebene-37" vectornator:layerName="Ebene 37">
<path d="M810.227 1060.62C822.278 1068.65 834.608 1080.15 850.925 1078.52C866.702 1076.94 878.807 1061.5 895.395 1064.82C910.205 1067.78 921.894 1081.36 937.907 1079.36C955.411 1077.17 968.604 1059.68 987.69 1062.86C1001.92 1065.23 1014.23 1080.44 1029.08 1077.96C1044.59 1075.38 1057.43 1062.19 1073.55 1063.98C1086.47 1065.41 1095.09 1078.04 1108.23 1079.92C1135.84 1083.86 1133.36 1050.81 1172.56 1073.21C1185.35 1080.52 1200.28 1081.47 1213.95 1076C1216.54 1074.97 1236.25 1066.55 1236.06 1066.36" fill="none" fill-rule="evenodd" opacity="1" stroke="#8ca500" stroke-linecap="round" stroke-linejoin="round" stroke-width="43.3981"/>
</g>
<g id="Ebene-21" vectornator:layerName="Ebene 21">
<path d="M1096.1 810.176C1096.93 808.521 1099.47 808.19 1101.08 807.884C1106.01 806.945 1111.42 808.188 1114.75 811.994C1115.61 812.967 1117.03 814.721 1116.85 816.104C1116.7 817.259 1115.45 819.036 1114.48 819.582C1113.94 819.884 1113.18 819.933 1112.74 820.373" fill="none" fill-rule="evenodd" opacity="1" stroke="#ff8400" stroke-linecap="round" stroke-linejoin="round" stroke-width="4.57948"/>
<path d="M1098.88 820.513C1098.47 820.328 1100.72 820.983 1101.1 821.079C1102.23 821.37 1103.54 821.591 1104.86 821.787C1105.63 821.9 1106.63 822.01 1107.5 821.944C1108.81 821.844 1112.24 820.958 1112.24 820.561" fill="none" fill-rule="evenodd" opacity="1" stroke="#ff8400" stroke-linecap="round" stroke-linejoin="round" stroke-width="4.57948"/>
<path d="M1097.64 808.838C1100.65 803.819 1120.29 810.494 1116.93 816.545C1109.23 830.404 1091.78 813.681 1097.09 810.498" fill="none" fill-rule="evenodd" opacity="1" stroke="#ff8400" stroke-linecap="round" stroke-linejoin="round" stroke-width="4.57948"/>
<path d="M1087.08 814.299C1087.08 804.975 1113.98 800.349 1116.72 813.122C1118.11 819.595 1109.37 822.373 1104.61 820.785C1098.42 818.724 1090.13 809.011 1088.84 802.529" fill="none" fill-rule="evenodd" opacity="1" stroke="#ff8400" stroke-linecap="round" stroke-linejoin="round" stroke-width="4.57948"/>
<path d="M1056.79 809.477C1058.95 809.423 1061.35 811.761 1063.07 812.794C1087.15 827.277 1042.97 840.753 1056.06 813.273C1057.52 810.193 1059.99 807.579 1061.96 804.814" fill="none" fill-rule="evenodd" opacity="1" stroke="#ff8400" stroke-linecap="round" stroke-linejoin="round" stroke-width="4.57948"/>
<path d="M1017.06 816.292C1014.4 816.459 1010.58 822.079 1009.33 824.104C1007.68 826.766 1007.05 829.606 1006.68 832.682C1003.75 856.834 1034.43 847.757 1025.37 828.318C1023.14 823.532 1020.08 819.286 1015.9 816.019C1015.27 815.523 1011.6 813.74 1011.55 812.991" fill="none" fill-rule="evenodd" opacity="1" stroke="#ff8400" stroke-linecap="round" stroke-linejoin="round" stroke-width="4.57948"/>
<path d="M973.846 795.812C968.142 793.587 955.22 808.747 961.211 815.095C972.455 827.01 977.841 800.763 972.605 791.984" fill="none" fill-rule="evenodd" opacity="1" stroke="#ff8400" stroke-linecap="round" stroke-linejoin="round" stroke-width="4.57948"/>
<path d="M960.185 803.847C952.656 800.739 935.751 809.633 939.732 819.033C943.966 829.032 954.925 816.828 955.921 811.126C956.625 807.096 953.429 802.513 954.035 799.044" fill="none" fill-rule="evenodd" opacity="1" stroke="#ff8400" stroke-linecap="round" stroke-linejoin="round" stroke-width="4.57948"/>
<path d="M989.77 928.674C979.665 924.669 959.758 949.435 975.805 953.516C982.525 955.225 988.943 947.966 988.102 941.685C987.554 937.594 986.153 932.971 984.882 929.025C984.339 927.339 981.324 924.176 983.089 924.024" fill="none" fill-rule="evenodd" opacity="1" stroke="#ff8400" stroke-linecap="round" stroke-linejoin="round" stroke-width="4.57948"/>
<path d="M1037.4 921.262C1034.12 925.058 1031.65 929.99 1029.45 934.448C1027.83 937.732 1027.08 941.509 1026.87 945.134C1025.14 974.552 1062.04 961.328 1045.8 939.281C1040.84 932.544 1032.25 929.604 1027.37 923.325" fill="none" fill-rule="evenodd" opacity="1" stroke="#ff8400" stroke-linecap="round" stroke-linejoin="round" stroke-width="4.57948"/>
<path d="M1112.29 820.342C1111.79 820.997 1109.83 820.908 1109.11 820.97C1101.24 821.643 1098.69 813.325 1096 807.9" fill="none" fill-rule="evenodd" opacity="1" stroke="#ff8400" stroke-linecap="round" stroke-linejoin="round" stroke-width="4.57948"/>
</g>
<g id="Ebene-22" vectornator:layerName="Ebene 22">
<path d="M856.69 835.189C856.69 835.189 879.719 819.887 908.471 806.844C918.757 802.178 930.307 797.918 941.053 794.588C981.838 781.949 1064.38 780.942 1104.37 793.873C1115.93 797.609 1130.68 802.469 1142.1 807.678C1170.21 820.504 1188.88 834.872 1188.88 834.872L1107.46 837.738L1116.15 819.691L1114.45 809.284L1104.96 806.538L1093.67 808.913L1096.49 815.248L1105.61 822.036L1116.15 819.691L1107.46 837.738L1069.6 842.504L1065.27 828.217L1070.35 821.22L1065.27 814.253L1058.92 810.047L1054.46 814.695L1053.85 824.447L1059.2 829.073L1065.27 828.217L1069.6 842.504L1061.81 845.163L1013.92 804.58L973.846 795.812L964.503 800.57L960.321 807.413L955.811 807.89L951.712 803.976L939.865 812.918L940.752 820.863L946.502 822.409L952.781 817.238L955.921 811.126L959.789 812.297L966.55 818.142L971.866 814.14L974.442 804.879L973.846 795.812L1013.92 804.58L1061.81 845.163L1032.09 863.828L1032.51 876.898L1035.64 885.76L1032.05 896.177L1049.64 911.9L1084.22 913.902L1086.43 928.176L1048.62 944.119L1032.88 927.857L1027.6 939.807L1028.51 955.862L987.855 945.256L987.243 937.21L984.882 929.025L976.584 933.792L970.077 944.26L972.866 952.32L983.431 951.785L987.855 945.256L1028.51 955.862L1039.06 962.095L1049.35 953.968L1048.62 944.119L1086.43 928.176L1108.99 941.739L1141.81 943.091L1174.28 940.952L1212.76 949.938L1253.74 953.242L1275.52 965.4L1287.06 978.126L1262.89 976.927L1202.36 968.422L1170.94 960.433L1145.28 955.968L1130.93 964.154L1141.33 986.194L1163.86 1002.25L1192.45 1011.15L1215.3 1012.74L1248.99 1033.12L794.341 1032.85L828.947 1015.78L881.662 1003.65L911.748 979.293L916.879 965.937L912.322 957.637L889.524 956.619L851.357 966.39C851.357 966.39 820.721 973.921 819.398 973.209C818.075 972.496 782.35 977.382 782.35 977.382L758.331 977.076L783.877 957.738L810.95 951.123L849.321 948.68L883.824 941.556L923.314 943.184L951.1 937.383L963.152 924.294L965.102 913.658L1002.68 909.137L1015.87 897.452L1010.8 881.149L1018.26 868.541L1003.18 853.3L1010.52 845.664L1019.93 846.275L1026.92 837.088L1025.37 828.318L1017.06 816.292L1010.48 822.368L1005.34 833.643L1007.25 841.021L1010.52 845.664L1003.18 853.3L976.088 842.121L945.449 838.332L920.981 839.415L893.59 835.842L856.69 835.189Z" fill="#ff8400" fill-rule="evenodd" opacity="1" stroke="none"/>
</g>
<g id="Ebene-3" vectornator:layerName="Ebene 3">
<path d="M540.394 1135.24C540.394 1135.24 516.909 1036.86 551.136 928.764C561.649 895.557 579.627 854.256 604.96 818.917C615.506 804.206 675.622 718.662 777.076 668.921C814.34 650.651 861.01 632.915 900.316 623.379C966.678 607.278 1021.77 609.5 1021.77 609.5C1021.77 609.5 1094.97 606.472 1183.56 632.123C1202.02 637.467 1234.36 649.803 1268.12 667.094C1299.06 682.942 1330.93 702.948 1359.61 725.613C1413.11 767.903 1447.61 821.693 1457.94 838.187C1480.61 874.362 1494.87 914.98 1504.25 951.32C1528.59 1045.59 1508.28 1131.18 1508.28 1131.18" fill="none" fill-rule="evenodd" opacity="1" stroke="#ffffff" stroke-linecap="round" stroke-linejoin="round" stroke-width="18"/>
</g>
<g id="Ebene-3-kopieren" vectornator:layerName="Ebene 3 kopieren">
<path d="M625.679 1308.37C652.839 1341.52 704.394 1395.74 777.291 1431.48C814.555 1449.75 861.224 1467.49 900.531 1477.02C966.893 1493.13 1021.99 1490.9 1021.99 1490.9C1021.99 1490.9 1095.18 1493.93 1183.78 1468.28C1202.23 1462.94 1234.58 1450.6 1268.34 1433.31C1284.14 1425.21 1323.03 1402.29 1357.36 1374.01C1390.21 1346.94 1415.87 1317.94 1423.88 1308.05" fill="none" fill-rule="evenodd" opacity="1" stroke="#ffffff" stroke-linecap="round" stroke-linejoin="round" stroke-width="18"/>
</g>
<g id="Ebene-1" vectornator:layerName="Ebene 1">
<path d="M690.705 942.949C690.705 942.949 694.996 929.658 705.979 911.095C713.422 898.515 724.782 883.475 736.721 868.661C756.133 844.575 786.267 820.73 803.278 808.781C837.813 784.523 882.538 767.339 909.273 759.987C923.67 756.028 968.39 745.028 1020.29 744.203C1042.86 743.844 1104.14 749.585 1159.48 768.922C1207.13 785.574 1250.04 815.075 1264.17 827.114C1272.26 834.01 1298.88 856.955 1316.82 880.176C1339.35 909.326 1352.96 939.007 1352.96 939.007" fill="none" fill-rule="evenodd" opacity="1" stroke="#ffffff" stroke-linecap="round" stroke-linejoin="round" stroke-width="18"/>
</g>
<g id="Ebene-1-kopieren" vectornator:layerName="Ebene 1 kopieren">
<path d="M764.167 1259.06C777.434 1269.02 796.814 1285.44 819.885 1298.9C837.225 1309.02 873.181 1327.69 912.575 1339.35C952.822 1351.25 996.607 1356.04 1022.83 1356.46C1045.41 1356.81 1106.68 1351.07 1162.02 1331.74C1183.19 1324.34 1209.29 1311.55 1230.49 1298.56C1257.03 1282.31 1277.16 1265.75 1285.02 1259.06" fill="none" fill-rule="evenodd" opacity="1" stroke="#ffffff" stroke-linecap="round" stroke-linejoin="round" stroke-width="18"/>
</g>
<g id="Ebene-4" vectornator:layerName="Ebene 4">
<path d="M518.934 1160.48L533.3 1143.94L530.35 1130.21C530.35 1130.21 556.233 1097.15 578.691 1063.76C601.149 1030.36 620.183 996.634 620.183 996.634C620.183 996.634 634.968 970.319 653.304 952.427C664.371 941.628 680.142 936.684 685.056 934.539C691.495 931.728 698.731 930.514 705.814 927.211C712.961 923.879 719.956 918.448 727.103 913.519C741.642 903.49 755.506 887.86 766.808 877.603C784.622 861.436 804.512 845.955 812.973 842.951C821.433 839.948 830.18 840.398 830.18 840.398C830.18 840.398 833.111 835.413 844.822 832.546C851.201 830.984 860.415 831.009 872.65 830.603C883.8 830.233 898.867 833.5 912.64 834.219C929.605 835.104 948.211 833.332 965.15 835.672C977.248 837.344 989.586 842.677 994.879 845.423C1001.92 849.074 1012.73 854.236 1018.15 860.153C1022.52 864.914 1022.33 870.643 1021.93 872.805C1021.03 877.653 1016.18 881.543 1016.18 881.543C1016.18 881.543 1021.26 887.332 1020.83 893.768C1020.43 899.666 1014.81 906.046 1008.92 910.301C996.589 919.199 966.866 917.134 966.866 917.134C966.866 917.134 968.598 930.205 959.285 937.611C949.972 945.016 929.613 946.756 929.613 946.756C929.613 946.756 917.806 947.813 904.545 947.342C894.547 946.987 884.003 944.965 875.496 945.449C869.415 945.795 866.052 948.532 862.446 949.31C860.208 949.793 850.593 952.816 839.178 954.168C831.412 955.087 823.115 953.805 814.568 955.984C808.722 957.474 796.6 956.284 791.235 958.117C786.009 959.904 782.029 963.536 778.615 965.621C770.815 970.385 767.199 973.455 767.199 973.455C767.199 973.455 790.806 972.694 822.329 967.473C834.487 965.46 847.751 963.61 859.547 961.081C864.93 959.927 868.402 957.113 872.894 956.001C879.467 954.374 894.232 951.368 905.002 952.037C912.566 952.507 917.327 955.617 919.485 958.716C924.716 966.226 914.218 982.614 914.218 982.614C914.218 982.614 910.484 990.11 897.214 998.995C893.798 1001.28 882.257 1008.39 868.729 1012.2C854.283 1016.26 837.77 1017 832.955 1018.66C820.645 1022.9 810.524 1030.94 800.084 1035.15C780.179 1043.17 764.055 1046.35 764.055 1046.35C764.055 1046.35 760.644 1057.89 752.688 1070.47C744.732 1083.06 732.23 1096.68 732.23 1096.68C732.23 1096.68 732.06 1109.76 725.854 1123.73C719.647 1137.69 707.405 1152.54 707.405 1152.54C707.405 1152.54 715.949 1137.4 719.726 1126.15C723.504 1114.89 722.515 1107.53 722.515 1107.53C722.515 1107.53 718.008 1114.71 707.697 1123.9C697.386 1133.1 681.272 1144.32 681.272 1144.32C681.272 1144.32 709.942 1113.24 728.333 1089.4C746.724 1065.55 754.836 1048.93 754.836 1048.93L735.893 1050.49C735.893 1050.49 770.33 1037.97 793.78 1027.83C799.51 1025.35 807.44 1022.16 814.962 1018.15C820.879 1015 826.224 1010.93 832.214 1009.1C840.997 1006.41 849.215 1006.89 856.91 1005.86C864.6 1004.83 871.768 1002.3 877.143 1000.11C896.23 992.321 906.04 978.798 906.04 978.798C906.04 978.798 915.353 967.446 911.739 963.169C908.125 958.892 891.584 961.69 891.584 961.69C891.584 961.69 885.919 962.442 873.54 965.437C865.22 967.45 854.002 971.202 838.924 973.692C801.415 979.887 741.547 986.467 741.547 986.467C741.547 986.467 736.268 984.885 725.827 990.462C723.521 991.694 705.283 1006.22 686.364 1019.06C666.399 1032.61 645.765 1044.48 645.765 1044.48L709.575 989.679C709.575 989.679 717.361 982.506 725.381 979.541C733.401 976.576 741.655 977.817 741.655 977.817C741.655 977.817 753.377 971.554 766.976 963.344C774.01 959.098 780.055 952.584 788.384 949.831C798.611 946.45 808.915 947.702 817.785 947.326C830.103 946.803 839.379 945.516 839.379 945.516C839.379 945.516 847.778 943.685 858.328 940.97C863.424 939.659 868.635 936.96 874.381 936.41C881.368 935.742 888.469 937.475 894.412 937.998C903.473 938.795 909.937 938.767 909.937 938.767C909.937 938.767 922.452 939.435 932.965 937.965C943.478 936.495 955.441 931.169 957.263 927.418C958.004 925.893 959.064 921.621 958.153 917.583C957.344 913.994 954.668 910.569 953.552 909.737C949.444 906.676 943.567 905.704 943.567 905.704L887.102 897.119L783.145 907.122C783.145 907.122 775.661 907.535 768.136 909.875C760.611 912.215 753.046 916.482 753.046 916.482L759.228 903.289L788.768 898.068L888.325 887.941L945.729 897.186C945.729 897.186 952.568 898.366 957.109 901.178C961.649 903.991 963.892 908.436 963.892 908.436C963.892 908.436 977.419 909.97 986.743 909.202C996.067 908.435 1001.19 905.367 1001.19 905.367C1001.19 905.367 1012.01 899.117 1011.52 892.7C1011.02 886.283 999.201 879.699 999.201 879.699C999.201 879.699 964.628 863.616 957.395 861.85C937.367 856.961 919.09 860.141 919.09 860.141C919.09 860.141 905.925 862.734 884.909 861.469C863.893 860.203 835.025 855.079 835.025 855.079L844.659 847.888C844.659 847.888 867.732 852.801 890.451 853.358C901.805 853.636 912.498 851.98 921.992 851.295C934.195 850.414 943.957 850.416 945.711 850.567C957.726 851.601 963.522 854.939 963.522 854.939C963.522 854.939 982.45 861.253 993.661 866.544C1004.87 871.834 1008.37 876.101 1008.37 876.101C1008.37 876.101 1013.63 873.653 1013.2 870.087C1012.76 866.521 1006.62 861.838 1006.62 861.838C1006.62 861.838 1000.89 858.747 991.835 854.432C984.994 851.172 976.299 846.834 966.517 844.749C947.304 840.653 923.424 843.916 911.631 843.132C898.802 842.28 887.564 837.973 876.271 838.382C855.12 839.146 844.659 847.888 844.659 847.888L835.025 855.079C835.025 855.079 822.259 853.557 803.31 865.61C784.361 877.662 759.228 903.289 759.228 903.289L753.046 916.482C753.046 916.482 740.808 924.979 725.551 934.318C720.12 937.642 708.514 945.625 696.684 951.976C684.385 958.578 671.911 963.525 669.415 965.508C653.439 978.205 626.145 1029.51 594.19 1074.63C586.27 1085.82 579.226 1100.35 570.97 1111.35C545.916 1144.75 521.382 1170.38 521.382 1170.38L518.934 1160.48Z" fill="#ffffff" fill-rule="evenodd" opacity="1" stroke="none"/>
</g>
<g id="Ebene-4-kopieren" vectornator:layerName="Ebene 4 kopieren">
<path d="M1528.96 1160.48L1514.6 1143.94L1517.55 1130.21C1517.55 1130.21 1491.66 1097.15 1469.21 1063.76C1446.75 1030.36 1427.71 996.634 1427.71 996.634C1427.71 996.634 1412.93 970.319 1394.59 952.427C1383.53 941.628 1367.75 936.684 1362.84 934.539C1356.4 931.728 1349.17 930.514 1342.08 927.211C1334.94 923.879 1327.94 918.448 1320.79 913.519C1306.25 903.49 1292.39 887.86 1281.09 877.603C1263.27 861.436 1243.38 845.955 1234.92 842.951C1226.46 839.948 1217.72 840.398 1217.72 840.398C1217.72 840.398 1214.79 835.413 1203.07 832.546C1196.7 830.984 1187.48 831.009 1175.25 830.603C1164.1 830.233 1149.03 833.5 1135.26 834.219C1118.29 835.104 1099.69 833.332 1082.75 835.672C1070.65 837.344 1058.31 842.677 1053.02 845.423C1045.98 849.074 1035.16 854.236 1029.74 860.153C1025.38 864.914 1025.57 870.643 1025.97 872.805C1026.87 877.653 1031.71 881.543 1031.71 881.543C1031.71 881.543 1026.63 887.332 1027.07 893.768C1027.46 899.666 1033.08 906.046 1038.98 910.301C1051.31 919.199 1081.03 917.134 1081.03 917.134C1081.03 917.134 1079.3 930.205 1088.61 937.611C1097.92 945.016 1118.28 946.756 1118.28 946.756C1118.28 946.756 1130.09 947.813 1143.35 947.342C1153.35 946.987 1163.89 944.965 1172.4 945.449C1178.48 945.795 1181.84 948.532 1185.45 949.31C1187.69 949.793 1197.3 952.816 1208.72 954.168C1216.48 955.087 1224.78 953.805 1233.33 955.984C1239.17 957.474 1251.3 956.284 1256.66 958.117C1261.89 959.904 1265.87 963.536 1269.28 965.621C1277.08 970.385 1280.7 973.455 1280.7 973.455C1280.7 973.455 1257.09 972.694 1225.57 967.473C1213.41 965.46 1200.15 963.61 1188.35 961.081C1182.97 959.927 1179.49 957.113 1175 956.001C1168.43 954.374 1153.66 951.368 1142.89 952.037C1135.33 952.507 1130.57 955.617 1128.41 958.716C1123.18 966.226 1133.68 982.614 1133.68 982.614C1133.68 982.614 1137.41 990.11 1150.68 998.995C1154.1 1001.28 1165.64 1008.39 1179.17 1012.2C1193.61 1016.26 1210.13 1017 1214.94 1018.66C1227.25 1022.9 1237.37 1030.94 1247.81 1035.15C1267.72 1043.17 1283.84 1046.35 1283.84 1046.35C1283.84 1046.35 1287.25 1057.89 1295.21 1070.47C1303.16 1083.06 1315.67 1096.68 1315.67 1096.68C1315.67 1096.68 1315.84 1109.76 1322.04 1123.73C1328.25 1137.69 1340.49 1152.54 1340.49 1152.54C1340.49 1152.54 1331.95 1137.4 1328.17 1126.15C1324.39 1114.89 1325.38 1107.53 1325.38 1107.53C1325.38 1107.53 1329.89 1114.71 1340.2 1123.9C1350.51 1133.1 1366.62 1144.32 1366.62 1144.32C1366.62 1144.32 1337.95 1113.24 1319.56 1089.4C1301.17 1065.55 1293.06 1048.93 1293.06 1048.93L1312 1050.49C1312 1050.49 1277.57 1037.97 1254.12 1027.83C1248.39 1025.35 1240.46 1022.16 1232.93 1018.15C1227.02 1015 1221.67 1010.93 1215.68 1009.1C1206.9 1006.41 1198.68 1006.89 1190.99 1005.86C1183.3 1004.83 1176.13 1002.3 1170.75 1000.11C1151.67 992.321 1141.86 978.798 1141.86 978.798C1141.86 978.798 1132.54 967.446 1136.16 963.169C1139.77 958.892 1156.31 961.69 1156.31 961.69C1156.31 961.69 1161.98 962.442 1174.36 965.437C1182.68 967.45 1193.89 971.202 1208.97 973.692C1246.48 979.887 1306.35 986.467 1306.35 986.467C1306.35 986.467 1311.63 984.885 1322.07 990.462C1324.38 991.694 1342.61 1006.22 1361.53 1019.06C1381.5 1032.61 1402.13 1044.48 1402.13 1044.48L1338.32 989.679C1338.32 989.679 1330.54 982.506 1322.52 979.541C1314.5 976.576 1306.24 977.817 1306.24 977.817C1306.24 977.817 1294.52 971.554 1280.92 963.344C1273.89 959.098 1267.84 952.584 1259.51 949.831C1249.29 946.45 1238.98 947.702 1230.11 947.326C1217.79 946.803 1208.52 945.516 1208.52 945.516C1208.52 945.516 1200.12 943.685 1189.57 940.97C1184.47 939.659 1179.26 936.96 1173.52 936.41C1166.53 935.742 1159.43 937.475 1153.48 937.998C1144.42 938.795 1137.96 938.767 1137.96 938.767C1137.96 938.767 1125.44 939.435 1114.93 937.965C1104.42 936.495 1092.46 931.169 1090.63 927.418C1089.89 925.893 1088.83 921.621 1089.74 917.583C1090.55 913.994 1093.23 910.569 1094.34 909.737C1098.45 906.676 1104.33 905.704 1104.33 905.704L1160.79 897.119L1264.75 907.122C1264.75 907.122 1272.24 907.535 1279.76 909.875C1287.29 912.215 1294.85 916.482 1294.85 916.482L1288.67 903.289L1259.13 898.068L1159.57 887.941L1102.17 897.186C1102.17 897.186 1095.33 898.366 1090.79 901.178C1086.25 903.991 1084 908.436 1084 908.436C1084 908.436 1070.48 909.97 1061.15 909.202C1051.83 908.435 1046.71 905.367 1046.71 905.367C1046.71 905.367 1035.88 899.117 1036.38 892.7C1036.88 886.283 1048.7 879.699 1048.7 879.699C1048.7 879.699 1083.27 863.616 1090.5 861.85C1110.53 856.961 1128.81 860.141 1128.81 860.141C1128.81 860.141 1141.97 862.734 1162.99 861.469C1184 860.203 1212.87 855.079 1212.87 855.079L1203.24 847.888C1203.24 847.888 1180.16 852.801 1157.45 853.358C1146.09 853.636 1135.4 851.98 1125.9 851.295C1113.7 850.414 1103.94 850.416 1102.19 850.567C1090.17 851.601 1084.37 854.939 1084.37 854.939C1084.37 854.939 1065.45 861.253 1054.24 866.544C1043.02 871.834 1039.53 876.101 1039.53 876.101C1039.53 876.101 1034.26 873.653 1034.7 870.087C1035.13 866.521 1041.27 861.838 1041.27 861.838C1041.27 861.838 1047.01 858.747 1056.06 854.432C1062.9 851.172 1071.6 846.834 1081.38 844.749C1100.59 840.653 1124.47 843.916 1136.27 843.132C1149.09 842.28 1160.33 837.973 1171.63 838.382C1192.78 839.146 1203.24 847.888 1203.24 847.888L1212.87 855.079C1212.87 855.079 1225.64 853.557 1244.59 865.61C1263.54 877.662 1288.67 903.289 1288.67 903.289L1294.85 916.482C1294.85 916.482 1307.09 924.979 1322.35 934.318C1327.78 937.642 1339.38 945.625 1351.21 951.976C1363.51 958.578 1375.99 963.525 1378.48 965.508C1394.46 978.205 1421.75 1029.51 1453.71 1074.63C1461.63 1085.82 1468.67 1100.35 1476.93 1111.35C1501.98 1144.75 1526.51 1170.38 1526.51 1170.38L1528.96 1160.48Z" fill="#ffffff" fill-rule="evenodd" opacity="1" stroke="none"/>
</g>
<g id="Ebene-7" vectornator:layerName="Ebene 7">
<path clip-path="url(#TextBounds)" d="M592.774 906.676C592.113 908.089 591.868 909.302 592.04 910.315C592.212 911.328 592.51 912.149 592.933 912.778C593.42 913.58 594.134 914.201 595.076 914.641L572.643 904.149C573.232 904.424 573.872 904.437 574.563 904.186C575.2 904.053 575.844 903.673 576.496 903.045C577.149 902.417 577.806 901.397 578.466 899.984L597.385 859.535C598.542 857.062 598.783 855.165 598.109 853.845C597.858 853.154 597.438 852.671 596.85 852.395L619.282 862.887C618.34 862.447 617.406 862.297 616.479 862.437C615.725 862.515 614.89 862.842 613.975 863.419C613.059 863.995 612.299 864.931 611.693 866.226L605.497 879.474L622.983 887.653C624.216 888.086 625.28 888.189 626.176 887.962C627.071 887.735 627.774 887.382 628.285 886.904C628.969 886.362 629.504 885.68 629.889 884.855C629.621 885.735 629.499 886.61 629.522 887.482C629.482 888.181 629.662 888.947 630.062 889.78C630.461 890.612 631.164 891.336 632.168 891.949L679.683 914.173C681.096 914.834 682.309 915.078 683.323 914.906C684.336 914.734 685.157 914.437 685.785 914.013C686.587 913.527 687.235 912.754 687.731 911.694L676.413 935.893C676.853 934.951 677.003 934.016 676.863 933.089C676.785 932.335 676.487 931.514 675.97 930.627C675.452 929.739 674.487 928.964 673.074 928.303L626.796 906.658C625.5 906.052 624.303 905.851 623.203 906.054C622.103 906.257 621.239 906.571 620.611 906.994C619.809 907.481 619.188 908.195 618.747 909.137C619.188 908.195 619.338 907.26 619.198 906.333C619.12 905.579 618.836 904.729 618.346 903.782C617.856 902.835 616.904 902.032 615.491 901.371L598.887 893.605L592.774 906.676Z" fill="#ffffff" fill-rule="evenodd" opacity="1" stroke="none"/>
</g>
<g id="Ebene-8" vectornator:layerName="Ebene 8">
<path clip-path="url(#TextBounds_2)" d="M663.382 767.729C663.094 768.499 662.851 769.681 662.652 771.274C662.452 772.867 663.049 774.559 664.443 776.351L682.719 798.109C683.688 799.392 684.624 800.147 685.527 800.374C686.43 800.6 687.237 800.583 687.948 800.322C688.761 800.143 689.494 799.648 690.147 798.839C689.494 799.648 689.084 800.571 688.918 801.605C688.731 802.457 688.722 803.452 688.89 804.59C689.058 805.727 689.617 806.846 690.567 807.946L723.628 848.645C724.598 849.928 725.533 850.683 726.436 850.91C727.339 851.137 728.146 851.12 728.857 850.859C729.67 850.679 730.403 850.185 731.056 849.375L715.875 868.196C716.201 867.791 716.325 867.223 716.247 866.492C716.188 865.943 715.871 865.353 715.295 864.721C714.719 864.09 713.742 863.385 712.365 862.608L669.68 836.946L703.672 873.384C704.642 874.667 705.516 875.498 706.296 875.877C707.077 876.256 707.741 876.416 708.289 876.357C709.02 876.279 709.549 876.037 709.876 875.633L694.817 894.301C695.47 893.492 695.798 892.671 695.801 891.838C695.906 891.087 695.731 890.32 695.278 889.537C694.824 888.753 693.909 887.973 692.531 887.196L645.91 863.619C644.633 862.924 643.417 862.569 642.26 862.554C641.102 862.539 640.127 862.713 639.334 863.075C638.358 863.457 637.543 864.052 636.89 864.862C637.543 864.052 637.871 863.231 637.875 862.399C637.979 861.648 637.805 860.881 637.351 860.098C636.897 859.314 635.982 858.534 634.604 857.757L609.228 844.803C606.613 843.696 604.38 843.565 602.529 844.41C601.553 844.792 600.739 845.388 600.086 846.197L616.858 825.404C616.205 826.213 615.877 827.034 615.874 827.867C615.769 828.617 615.949 829.43 616.412 830.305C616.876 831.18 617.786 831.915 619.144 832.509L665.252 855.17L637.022 824.632C635.971 823.451 635.015 822.721 634.153 822.443C633.291 822.166 632.586 822.056 632.038 822.115C631.307 822.193 630.778 822.435 630.451 822.84L647.469 801.743C647.143 802.147 647.018 802.715 647.097 803.447C647.155 803.995 647.432 804.636 647.926 805.368C648.421 806.101 649.357 806.856 650.734 807.633L686.432 828.913L654.649 788.494C653.699 787.393 652.768 786.684 651.856 786.366C650.943 786.047 650.131 786.019 649.42 786.28C648.607 786.459 647.874 786.954 647.221 787.763L663.382 767.729Z" fill="#ffffff" fill-rule="evenodd" opacity="1" stroke="none"/>
</g>
<g id="Ebene-9" vectornator:layerName="Ebene 9">
<path clip-path="url(#TextBounds_3)" d="M700.834 800.134C699.882 799.066 698.861 798.41 697.77 798.163C696.679 797.917 695.762 797.864 695.017 798.006C694.089 798.137 693.236 798.548 692.46 799.241C693.236 798.548 693.743 797.749 693.979 796.841C694.204 796.118 694.278 795.224 694.201 794.161C694.124 793.098 693.566 791.984 692.527 790.82L679.938 776.703C677.526 773.803 676.277 771.084 676.192 768.547C676.107 766.01 676.446 763.705 677.209 761.631C678.177 759.2 679.636 757.028 681.587 755.114L700.652 738.111C702.776 736.391 705.1 735.189 707.625 734.505C709.773 733.983 712.078 733.931 714.54 734.348C717.002 734.765 719.585 736.294 722.288 738.934L735.023 752.921C736.062 754.086 737.08 754.788 738.079 755.03C739.078 755.271 739.95 755.321 740.695 755.179C741.623 755.048 742.475 754.637 743.251 753.944C742.475 754.637 741.969 755.436 741.733 756.344C741.508 757.067 741.479 757.963 741.648 759.032C741.817 760.1 742.378 761.168 743.33 762.235L771.478 794.092C773.793 797.078 775.015 799.864 775.143 802.45C775.272 805.035 774.911 807.316 774.061 809.293C773.094 811.724 771.591 813.848 769.554 815.665L750.78 832.408C748.742 834.225 746.461 835.475 743.936 836.16C741.875 836.778 739.543 836.898 736.941 836.519C734.338 836.14 731.734 834.587 729.128 831.86L700.834 800.134ZM695.754 763.382C694.87 764.344 694.291 765.209 694.017 765.976C693.743 766.743 693.682 767.407 693.834 767.968C693.889 768.616 694.176 769.23 694.696 769.813L704.17 780.437C705.208 781.601 706.227 782.304 707.226 782.545C708.225 782.786 709.097 782.836 709.842 782.694C710.77 782.563 711.622 782.152 712.398 781.46C711.622 782.152 711.116 782.951 710.88 783.859C710.654 784.582 710.605 785.454 710.73 786.474C710.856 787.494 711.395 788.538 712.347 789.605L737.526 817.839C738.045 818.421 738.623 818.776 739.26 818.905C739.8 819.12 740.489 819.159 741.325 819.023C742.162 818.886 743.065 818.386 744.035 817.52L755.532 807.267C756.503 806.402 757.103 805.561 757.334 804.746C757.565 803.93 757.604 803.242 757.452 802.681C757.397 802.033 757.11 801.418 756.591 800.836L731.671 772.894C730.633 771.73 729.614 771.027 728.615 770.786C727.616 770.544 726.744 770.494 726 770.636C725.071 770.767 724.219 771.179 723.443 771.871C724.219 771.179 724.725 770.379 724.961 769.472C725.187 768.748 725.237 767.876 725.111 766.856C724.985 765.836 724.403 764.744 723.365 763.58L713.76 752.81C713.241 752.228 712.663 751.873 712.026 751.744C711.486 751.529 710.819 751.514 710.026 751.699C709.233 751.884 708.308 752.36 707.251 753.129L695.754 763.382Z" fill="#ffffff" fill-rule="evenodd" opacity="1" stroke="none"/>
</g>
<g id="Ebene-10" vectornator:layerName="Ebene 10">
<path clip-path="url(#TextBounds_4)" d="M805.142 678.47C804.617 677.14 803.915 676.159 803.037 675.527C802.158 674.896 801.345 674.518 800.598 674.394C799.681 674.197 798.739 674.289 797.772 674.671L820.807 665.577C820.202 665.816 819.754 666.272 819.461 666.947C818.707 668.223 818.831 670.131 819.833 672.67L830.106 699.223L853.685 689.914L843.231 663.433C842.706 662.103 842.095 661.086 841.398 660.383C840.701 659.68 840.1 659.219 839.594 658.999C838.919 658.706 838.28 658.679 837.675 658.918L860.71 649.824C859.743 650.206 858.992 650.782 858.457 651.552C857.996 652.154 857.66 652.985 857.45 654.046C857.24 655.107 857.398 656.303 857.923 657.633L868.09 683.389C868.663 684.84 869.365 685.821 870.195 686.332C871.026 686.842 871.815 687.16 872.563 687.284C873.479 687.481 874.421 687.389 875.389 687.007C874.421 687.389 873.67 687.965 873.136 688.735C872.674 689.336 872.339 690.167 872.129 691.229C871.919 692.29 872.076 693.486 872.601 694.816L891.505 742.699C892.078 744.15 892.791 745.162 893.646 745.733C894.5 746.304 895.301 746.652 896.049 746.776C896.965 746.973 897.907 746.881 898.875 746.499L875.84 755.592C876.444 755.354 876.893 754.897 877.186 754.222C877.405 753.716 877.541 752.999 877.594 752.07C877.646 751.14 877.386 749.95 876.813 748.499L859.413 704.425L835.834 713.733L853.415 757.736C853.988 759.187 854.581 760.246 855.194 760.913C855.806 761.579 856.426 761.999 857.053 762.17C857.727 762.463 858.367 762.49 858.972 762.251L835.937 771.345C836.904 770.963 837.655 770.387 838.189 769.617C838.651 769.016 838.998 768.215 839.232 767.214C839.466 766.213 839.297 764.987 838.724 763.536L819.892 715.834C819.367 714.504 818.665 713.523 817.787 712.891C816.909 712.26 816.096 711.882 815.348 711.758C814.431 711.56 813.49 711.653 812.522 712.035C813.49 711.653 814.24 711.077 814.775 710.307C815.236 709.705 815.584 708.904 815.818 707.903C816.052 706.903 815.882 705.677 815.309 704.226L805.142 678.47Z" fill="#ffffff" fill-rule="evenodd" opacity="1" stroke="none"/>
</g>
<g id="Ebene-11" vectornator:layerName="Ebene 11">
<path clip-path="url(#TextBounds_5)" d="M921.07 734.505C921.061 735.041 921.129 735.625 921.276 736.259C921.715 738.158 922.705 739.264 924.244 739.575C924.839 739.838 925.579 739.867 926.466 739.661L900.438 745.681C900.438 745.681 900.716 745.584 901.271 745.389C901.826 745.193 902.44 744.818 903.112 744.262C903.784 743.706 904.405 742.929 904.974 741.93C905.544 740.931 905.843 739.628 905.871 738.02L905.772 684.804L905.553 683.854C905.318 682.84 904.906 682.068 904.317 681.538C903.727 681.007 903.149 680.673 902.584 680.537C901.863 680.304 901.122 680.275 900.362 680.451C901.376 680.216 902.267 679.743 903.036 679.032C903.709 678.476 904.298 677.706 904.804 676.721C905.31 675.737 905.577 674.441 905.606 672.833L905.782 644.171C905.821 643.762 905.752 643.178 905.576 642.418C905.342 641.404 904.93 640.632 904.34 640.102C903.751 639.571 903.173 639.237 902.608 639.101C901.887 638.868 901.146 638.839 900.386 639.015L929.834 632.204C928.947 632.409 928.295 632.76 927.876 633.257C926.658 634.339 926.255 635.767 926.665 637.54C926.841 638.3 927.036 638.856 927.25 639.206L939.759 664.734C940.364 666.195 941.173 667.242 942.187 667.875C943.201 668.508 944.131 668.927 944.979 669.131C945.983 669.433 946.991 669.466 948.005 669.232C947.118 669.437 946.465 669.788 946.047 670.285C944.829 671.367 944.426 672.795 944.836 674.568C945.011 675.328 945.207 675.883 945.421 676.234L968.376 723.564C968.981 725.025 969.791 726.072 970.804 726.705C971.818 727.338 972.749 727.756 973.596 727.961C974.6 728.262 975.609 728.296 976.622 728.061L950.594 734.081C951.354 733.905 951.943 733.569 952.362 733.072C952.81 732.701 953.19 732.18 953.501 731.507C953.813 730.835 953.851 729.992 953.617 728.979C953.441 728.219 953.231 727.6 952.988 727.123L947.106 714.673L921.078 720.693L921.07 734.505ZM920.983 704.703L940.171 700.265L920.903 661.089L920.983 704.703Z" fill="#ffffff" fill-rule="evenodd" opacity="1" stroke="none"/>
</g>
<g id="Ebene-12" vectornator:layerName="Ebene 12">
<path clip-path="url(#TextBounds_6)" d="M982.344 631.012C982.344 629.582 982.051 628.412 981.466 627.502C980.881 626.592 980.264 625.942 979.614 625.552C978.834 625.032 977.924 624.772 976.884 624.772L1010.42 624.772C1009.77 624.772 1009.19 625.032 1008.67 625.552C1008.28 625.942 1008.02 626.592 1007.89 627.502C1007.76 628.412 1008.02 629.582 1008.67 631.012L1027.19 685.222L1027.19 631.012C1027.19 629.582 1026.9 628.412 1026.32 627.502C1025.73 626.592 1025.11 625.942 1024.46 625.552C1023.68 625.032 1022.77 624.772 1021.73 624.772L1048.25 624.772C1047.21 624.772 1046.3 625.032 1045.52 625.552C1044.87 625.942 1044.26 626.592 1043.67 627.502C1043.09 628.412 1042.79 629.582 1042.79 631.012L1042.99 658.702C1042.99 660.262 1043.28 661.432 1043.87 662.212C1044.45 662.992 1045.07 663.577 1045.72 663.967C1046.5 664.487 1047.41 664.747 1048.45 664.747C1047.41 664.747 1046.5 665.007 1045.72 665.527C1045.07 665.917 1044.45 666.567 1043.87 667.477C1043.28 668.387 1042.99 669.557 1042.99 670.987L1042.79 722.467C1042.79 724.027 1043.09 725.229 1043.67 726.074C1044.26 726.919 1044.87 727.537 1045.52 727.927C1046.3 728.447 1047.21 728.707 1048.25 728.707L1019.59 728.707C1020.63 728.707 1021.47 728.447 1022.12 727.927C1022.77 727.537 1023.26 726.919 1023.59 726.074C1023.91 725.229 1023.81 724.027 1023.29 722.467L997.944 647.392L997.944 722.467C997.944 724.027 998.106 725.229 998.431 726.074C998.756 726.919 999.179 727.537 999.699 727.927C1000.22 728.447 1000.8 728.707 1001.45 728.707L976.884 728.707C977.924 728.707 978.834 728.447 979.614 727.927C980.264 727.537 980.881 726.919 981.466 726.074C982.051 725.229 982.344 724.027 982.344 722.467L982.149 671.182C982.149 669.752 981.856 668.582 981.271 667.672C980.686 666.762 980.069 666.112 979.419 665.722C978.639 665.202 977.729 664.942 976.689 664.942C977.729 664.942 978.639 664.682 979.419 664.162C980.069 663.772 980.686 663.154 981.271 662.309C981.856 661.464 982.149 660.262 982.149 658.702L982.344 631.012Z" fill="#ffffff" fill-rule="evenodd" opacity="1" stroke="none"/>
</g>
<g id="Ebene-13" vectornator:layerName="Ebene 13">
<path clip-path="url(#TextBounds_7)" d="M1071.7 632.377C1071.91 630.962 1071.75 629.757 1071.24 628.763C1070.73 627.769 1070.18 627.033 1069.59 626.553C1068.89 625.926 1068.03 625.538 1067 625.389L1112.16 631.949C1114.84 632.47 1117.25 633.478 1119.4 634.972C1121.18 636.282 1122.7 638.013 1123.97 640.168C1125.23 642.322 1125.72 645.283 1125.44 649.051L1122.72 667.769C1122.49 669.313 1122.61 670.545 1123.07 671.466C1123.52 672.386 1124.05 673.086 1124.63 673.565C1125.33 674.192 1126.26 674.589 1127.42 674.758C1126.26 674.589 1125.26 674.706 1124.41 675.109C1123.71 675.401 1123 675.956 1122.29 676.772C1121.59 677.589 1121.13 678.705 1120.92 680.12L1114.81 722.188C1114.14 725.9 1112.86 728.637 1110.96 730.397C1109.06 732.157 1107.08 733.38 1105.01 734.064C1102.94 734.749 1101.09 735.039 1099.46 734.934C1097.83 734.829 1097.02 734.776 1097.02 734.776L1052.06 728.244C1053.09 728.394 1054.02 728.267 1054.87 727.865C1055.57 727.572 1056.3 727.055 1057.07 726.312C1057.83 725.569 1058.33 724.426 1058.55 722.882L1065.7 672.295C1065.91 670.879 1065.79 669.68 1065.34 668.695C1064.89 667.71 1064.37 666.978 1063.79 666.499C1063.09 665.872 1062.23 665.484 1061.2 665.334C1062.23 665.484 1063.16 665.358 1064.01 664.955C1064.71 664.663 1065.41 664.14 1066.11 663.388C1066.81 662.636 1067.27 661.488 1067.5 659.944L1071.7 632.377ZM1075.33 715.862L1094.44 718.637C1095.73 718.824 1096.76 718.744 1097.53 718.397C1098.3 718.049 1098.85 717.637 1099.19 717.16C1099.65 716.701 1099.93 716.086 1100.05 715.314L1105.46 678.07C1105.66 676.655 1105.51 675.45 1105 674.456C1104.48 673.462 1103.93 672.725 1103.35 672.246C1102.65 671.619 1101.79 671.231 1100.76 671.082C1101.79 671.231 1102.72 671.105 1103.57 670.702C1104.27 670.41 1105 669.892 1105.77 669.149C1106.53 668.407 1107.03 667.263 1107.25 665.72L1109.3 651.632C1109.41 650.861 1109.31 650.189 1109 649.619C1108.82 649.067 1108.4 648.514 1107.76 647.961C1107.12 647.408 1106.16 646.974 1104.9 646.658L1085.79 643.883L1082.96 663.373C1082.9 664.678 1083.12 665.694 1083.6 666.422C1084.09 667.149 1084.63 667.688 1085.24 668.039C1085.83 668.518 1086.57 668.823 1087.47 668.954C1086.55 668.952 1085.74 669.097 1085.04 669.39C1084.36 669.554 1083.68 669.947 1083 670.571C1082.32 671.194 1081.83 672.076 1081.53 673.215L1075.33 715.862Z" fill="#ffffff" fill-rule="evenodd" opacity="1" stroke="none"/>
</g>
<g id="Ebene-14" vectornator:layerName="Ebene 14">
<path clip-path="url(#TextBounds_8)" d="M1141.1 675.926C1140.6 675.042 1140.38 674.057 1140.45 672.969C1140.51 671.881 1140.6 670.805 1140.73 669.74C1140.9 668.554 1141.19 667.413 1141.6 666.319L1146.49 653.366C1147.95 649.885 1149.78 647.519 1151.99 646.269C1154.19 645.018 1156.4 644.251 1158.59 643.967C1161.19 643.698 1163.79 643.986 1166.39 644.828L1195.76 655.916C1198.32 656.881 1200.23 656.976 1201.49 656.203C1202.16 655.9 1202.61 655.445 1202.84 654.837L1194.78 676.181C1195.01 675.573 1194.97 674.934 1194.67 674.264C1194.49 673.64 1194.04 672.984 1193.33 672.298C1192.62 671.612 1191.59 671.016 1190.25 670.511L1165.62 661.213C1164.36 660.876 1163.32 660.794 1162.49 660.967C1161.66 661.14 1161.03 661.424 1160.6 661.819C1160.05 662.167 1159.64 662.707 1159.37 663.436L1157.37 668.727C1157.35 669.138 1157.3 669.64 1157.22 670.233C1157.13 670.826 1157.3 671.481 1157.73 672.197L1164.19 682.139C1164.91 683.525 1165.76 684.402 1166.74 684.769C1167.71 685.137 1168.55 685.313 1169.25 685.3C1170.11 685.21 1171.05 684.939 1172.05 684.484C1171.25 685.152 1170.62 685.889 1170.18 686.694C1169.78 687.378 1169.56 688.233 1169.52 689.26C1169.48 690.287 1169.91 691.456 1170.8 692.766L1181.54 710.158C1182.43 711.469 1182.67 712.877 1182.24 714.382C1181.81 715.888 1181.43 717.066 1181.11 717.917L1172.02 741.998C1170.44 745.434 1168.58 747.788 1166.43 749.061C1164.29 750.335 1162.12 751.113 1159.92 751.398C1157.32 751.666 1154.72 751.379 1152.12 750.536L1120.93 738.759C1119.47 738.208 1118.3 737.977 1117.43 738.067C1116.57 738.156 1115.86 738.375 1115.31 738.724C1114.64 739.027 1114.19 739.482 1113.96 740.09L1122.71 716.921C1122.34 717.894 1122.26 718.837 1122.47 719.751C1122.61 720.497 1122.94 721.281 1123.46 722.104C1123.98 722.927 1124.98 723.613 1126.43 724.164L1152.89 734.151C1154.1 734.61 1155.13 734.753 1155.96 734.58C1156.79 734.407 1157.41 734.123 1157.84 733.728C1158.39 733.379 1158.8 732.84 1159.08 732.11L1164.17 718.61C1164.72 717.151 1164.92 715.904 1164.75 714.869C1164.59 713.834 1164.43 713.149 1164.28 712.813L1155.79 699.398C1154.91 698.787 1154.12 698.416 1153.4 698.285C1152.69 698.155 1152.04 698.119 1151.46 698.178C1150.84 698.36 1150.19 698.602 1149.52 698.905C1150.11 698.434 1150.59 697.918 1150.94 697.356C1151.29 696.793 1151.56 696.166 1151.75 695.475C1151.94 694.783 1151.96 693.919 1151.79 692.884L1141.1 675.926Z" fill="#ffffff" fill-rule="evenodd" opacity="1" stroke="none"/>
</g>
<g id="Ebene-15" vectornator:layerName="Ebene 15">
<path clip-path="url(#TextBounds_9)" d="M1275.51 697.464C1276.32 696.133 1276.7 694.955 1276.64 693.929C1276.58 692.903 1276.38 692.054 1276.03 691.382C1275.64 690.531 1275 689.834 1274.11 689.291L1321.78 718.24C1323.11 719.055 1324.22 719.544 1325.11 719.708C1326 719.872 1326.75 719.834 1327.35 719.594C1328.06 719.422 1328.59 719.058 1328.93 718.504L1317.02 737.963C1317.36 737.409 1317.44 736.774 1317.27 736.059C1317.14 735.523 1316.82 734.868 1316.3 734.094C1315.79 733.32 1314.86 732.526 1313.53 731.712L1283.93 713.591L1271.91 733.217L1295.47 747.404C1297.79 748.83 1299.65 749.281 1301.04 748.758C1301.75 748.586 1302.28 748.223 1302.62 747.668L1290.71 767.127C1291.05 766.573 1291.13 765.938 1290.96 765.223C1290.83 764.687 1290.48 764.015 1289.91 763.207C1289.34 762.4 1288.44 761.623 1287.22 760.876L1263.77 746.522L1241.34 783.546C1240.52 784.877 1240.14 786.055 1240.2 787.081C1240.26 788.107 1240.46 788.956 1240.81 789.628C1241.21 790.479 1241.85 791.176 1242.74 791.719L1219.95 777.772C1220.84 778.315 1221.75 778.568 1222.69 778.532C1223.44 778.539 1224.29 778.335 1225.23 777.919C1226.17 777.504 1227.05 776.631 1227.86 775.3L1254.54 731.725C1255.35 730.395 1255.73 729.216 1255.67 728.19C1255.61 727.164 1255.41 726.315 1255.06 725.643C1254.66 724.792 1254.02 724.096 1253.14 723.553C1254.02 724.096 1254.94 724.349 1255.87 724.313C1256.63 724.319 1257.48 724.115 1258.42 723.7C1259.36 723.284 1260.24 722.411 1261.05 721.081L1275.51 697.464Z" fill="#ffffff" fill-rule="evenodd" opacity="1" stroke="none"/>
</g>
<g id="Ebene-16" vectornator:layerName="Ebene 16">
<path clip-path="url(#TextBounds_10)" d="M1306.79 757.056C1307.56 757.761 1308.4 758.187 1309.33 758.333C1310.07 758.487 1310.94 758.452 1311.95 758.227C1312.95 758.002 1313.98 757.316 1315.04 756.169L1333.82 736.086C1334.79 735.035 1335.34 733.954 1335.48 732.845C1335.62 731.735 1335.58 730.817 1335.37 730.089C1335.15 729.178 1334.65 728.37 1333.89 727.665L1352.1 744.451C1351.62 744.011 1351.01 743.805 1350.28 743.835C1348.8 743.711 1347.14 744.653 1345.29 746.66L1326.65 766.875C1325.59 768.022 1325.02 769.081 1324.92 770.051C1324.82 771.021 1324.88 771.87 1325.09 772.597C1325.31 773.508 1325.8 774.316 1326.57 775.021C1325.8 774.316 1324.96 773.89 1324.03 773.744C1323.29 773.59 1322.4 773.649 1321.35 773.922C1320.3 774.194 1319.29 774.856 1318.32 775.908L1292.68 803.722C1292.15 804.295 1291.86 804.905 1291.79 805.552C1291.63 806.111 1291.66 806.799 1291.87 807.619C1292.09 808.438 1292.68 809.288 1293.63 810.169L1304.96 820.611C1305.92 821.492 1306.81 822.008 1307.65 822.158C1308.48 822.308 1309.17 822.28 1309.71 822.074C1310.35 821.956 1310.94 821.61 1311.46 821.036L1336.7 793.377C1337.76 792.23 1338.36 791.148 1338.5 790.13C1338.64 789.112 1338.61 788.24 1338.39 787.512C1338.17 786.601 1337.68 785.793 1336.91 785.088C1337.68 785.793 1338.52 786.219 1339.45 786.365C1340.19 786.519 1341.06 786.484 1342.07 786.259C1343.07 786.034 1344.1 785.348 1345.16 784.201L1364.07 763.975C1365.04 762.923 1365.69 761.931 1366.02 760.998C1366.35 760.064 1366.5 759.322 1366.48 758.771C1366.45 758.036 1366.2 757.448 1365.72 757.008L1383.93 773.794C1383.16 773.089 1382.32 772.663 1381.39 772.517C1380.65 772.363 1379.75 772.422 1378.71 772.695C1377.66 772.967 1376.65 773.629 1375.68 774.681L1356.11 795.624C1354.81 797.609 1354.51 799.369 1355.22 800.904C1355.43 801.632 1355.92 802.348 1356.69 803.053C1355.93 802.531 1355.13 802.15 1354.29 801.908C1353.55 801.754 1352.75 801.718 1351.88 801.799C1351 801.881 1350.08 802.355 1349.1 803.223L1319.76 835.051C1317.02 837.647 1314.41 839.133 1311.94 839.509C1309.47 839.885 1307.17 839.795 1305.03 839.238C1302.51 838.512 1300.21 837.272 1298.11 835.517L1297.97 835.385L1279.48 818.334L1279.33 818.202C1277.41 816.256 1275.99 814.06 1275.06 811.614C1274.33 809.527 1274.03 807.217 1274.16 804.681C1274.29 802.146 1275.58 799.449 1278.04 796.589L1306.58 765.345C1307.55 764.294 1308.13 763.235 1308.31 762.17C1308.5 761.104 1308.49 760.208 1308.27 759.48C1308.05 758.569 1307.56 757.761 1306.79 757.056Z" fill="#ffffff" fill-rule="evenodd" opacity="1" stroke="none"/>
</g>
<g id="Ebene-17" vectornator:layerName="Ebene 17">
<path d="M1394.65 784.074L1409.97 802.002C1409.97 802.002 1407.37 801.392 1405.42 801.596C1403.48 801.799 1402.19 802.815 1402.19 802.815L1382.02 819.15C1382.02 819.15 1380.02 820.518 1379.25 822.488C1378.48 824.458 1378.94 827.029 1378.94 827.029C1378.94 827.029 1376.72 825.956 1374.05 826.876C1371.38 827.796 1368.26 830.709 1368.26 830.709L1343.81 851.22C1343.81 851.22 1341.98 852.384 1341.42 854.106C1340.86 855.829 1341.57 858.11 1341.57 858.11L1352.05 871.093C1352.05 871.093 1353.38 872.265 1355.07 872.818C1356.75 873.371 1358.8 873.304 1358.8 873.304L1342.99 887.195C1342.99 887.195 1343.38 884.922 1342.69 882.862C1341.99 880.801 1340.21 878.954 1340.21 878.954L1314.8 849.248C1314.8 849.248 1318.22 850.153 1320.91 849.645C1323.59 849.137 1325.53 847.214 1325.53 847.214L1361.82 817.283C1361.82 817.283 1363.94 815.394 1364.47 813.33C1365 811.266 1363.94 809.028 1363.94 809.028C1363.94 809.028 1366.82 809.864 1369.29 809.582C1371.75 809.299 1373.79 807.897 1373.79 807.897L1392.71 791.855C1392.71 791.855 1394.29 790.562 1394.77 788.617C1395.26 786.672 1394.65 784.074 1394.65 784.074Z" fill="#ffffff" fill-rule="evenodd" opacity="1" stroke="none"/>
</g>
<g id="Ebene-17-kopieren" vectornator:layerName="Ebene 17 kopieren">
<path d="M1437.66 840.175L1450.06 860.228C1450.06 860.228 1447.59 859.229 1445.64 859.133C1443.69 859.038 1442.26 859.847 1442.26 859.847L1419.83 872.915C1419.83 872.915 1417.64 873.962 1416.58 875.791C1415.52 877.621 1415.59 880.233 1415.59 880.233C1415.59 880.233 1413.56 878.834 1410.78 879.336C1408 879.838 1404.47 882.24 1404.47 882.24L1377.18 898.785C1377.18 898.785 1375.2 899.657 1374.38 901.274C1373.56 902.89 1373.91 905.252 1373.91 905.252L1382.29 919.682C1382.29 919.682 1383.43 921.043 1385.01 921.847C1386.59 922.65 1388.62 922.895 1388.62 922.895L1370.89 934.215C1370.89 934.215 1371.62 932.028 1371.25 929.886C1370.87 927.744 1369.4 925.646 1369.4 925.646L1348.81 892.413C1348.81 892.413 1352.05 893.83 1354.78 893.737C1357.51 893.644 1359.73 892.04 1359.73 892.04L1400.15 867.99C1400.15 867.99 1402.54 866.447 1403.38 864.488C1404.22 862.529 1403.51 860.155 1403.51 860.155C1403.51 860.155 1406.23 861.421 1408.71 861.517C1411.18 861.613 1413.42 860.539 1413.42 860.539L1434.56 847.569C1434.56 847.569 1436.31 846.532 1437.09 844.683C1437.87 842.835 1437.66 840.175 1437.66 840.175Z" fill="#ffffff" fill-rule="evenodd" opacity="1" stroke="none"/>
</g>
<g id="Ebene-18" vectornator:layerName="Ebene 18">
<path clip-path="url(#TextBounds_11)" d="M691.21 1321.84C691.685 1322.27 692.208 1322.53 692.779 1322.61C693.236 1322.7 693.773 1322.67 694.389 1322.53C695.004 1322.38 695.634 1321.96 696.277 1321.24L717.979 1297.18C718.343 1296.54 718.539 1295.97 718.57 1295.46C718.6 1294.94 718.52 1294.49 718.331 1294.11C718.194 1293.66 717.945 1293.22 717.583 1292.79C717.999 1293.16 718.435 1293.39 718.893 1293.48C719.297 1293.63 719.752 1293.67 720.258 1293.58C720.763 1293.5 721.317 1293.25 721.918 1292.82L733.975 1279.45C734.564 1278.8 734.913 1278.15 735.02 1277.49C735.128 1276.83 735.114 1276.28 734.978 1275.83C734.836 1275.27 734.527 1274.78 734.052 1274.35L754.902 1293.16C756.096 1294.35 756.986 1295.69 757.573 1297.19C758.035 1298.47 758.221 1299.87 758.13 1301.41C758.039 1302.94 757.276 1304.62 755.841 1306.45L746.597 1316.7C745.841 1317.42 745.134 1317.99 744.477 1318.42C743.819 1318.85 743.127 1319.17 742.402 1319.38C742.805 1320.6 742.947 1322 742.829 1323.56C742.712 1325.13 741.986 1326.71 740.652 1328.3L727.961 1342.55C726.347 1344.22 724.739 1345.17 723.136 1345.39C721.534 1345.62 720.086 1345.55 718.793 1345.19C717.5 1344.83 716.455 1344.35 715.659 1343.74C714.863 1343.13 714.465 1342.82 714.465 1342.82L691.21 1321.84ZM726.072 1302.55L734.982 1310.58C735.576 1311.12 736.117 1311.45 736.604 1311.56C737.092 1311.68 737.475 1311.7 737.755 1311.63C738.147 1311.55 738.451 1311.4 738.665 1311.16L746.703 1302.25C747.025 1301.89 747.203 1301.52 747.24 1301.12C747.335 1300.77 747.313 1300.35 747.174 1299.85C747.035 1299.34 746.695 1298.79 746.155 1298.2L737.245 1290.16L726.072 1302.55ZM707.263 1323.4L718.668 1333.68C719.262 1334.22 719.816 1334.53 720.33 1334.62C720.845 1334.71 721.268 1334.68 721.602 1334.55C721.994 1334.48 722.351 1334.26 722.673 1333.9L731.514 1324.1C731.89 1323.69 732.095 1323.28 732.131 1322.88C732.227 1322.54 732.192 1322.13 732.026 1321.65C731.86 1321.18 731.507 1320.65 730.966 1320.05L719.561 1309.76L707.263 1323.4Z" fill="#ffffff" fill-rule="evenodd" opacity="1" stroke="none"/>
</g>
<g id="Ebene-19" vectornator:layerName="Ebene 19">
<path clip-path="url(#TextBounds_12)" d="M747.674 1321.93C748.189 1322.31 748.734 1322.52 749.31 1322.54C749.775 1322.59 750.306 1322.51 750.905 1322.3C751.503 1322.1 752.088 1321.61 752.659 1320.84L762.815 1307.31C763.339 1306.6 763.606 1305.9 763.617 1305.21C763.628 1304.53 763.545 1303.97 763.366 1303.54C763.17 1302.99 762.815 1302.53 762.3 1302.15L774.554 1311.21C774.232 1310.97 773.848 1310.89 773.4 1310.96C772.488 1310.98 771.533 1311.66 770.534 1313.02L760.474 1326.62C759.903 1327.39 759.62 1328.08 759.624 1328.68C759.628 1329.28 759.72 1329.79 759.899 1330.22C760.094 1330.77 760.449 1331.23 760.964 1331.61C760.449 1331.23 759.904 1331.02 759.328 1331C758.863 1330.95 758.32 1331.05 757.698 1331.28C757.075 1331.52 756.502 1331.99 755.979 1332.7L742.138 1351.42C741.852 1351.8 741.711 1352.2 741.714 1352.6C741.652 1352.95 741.715 1353.37 741.902 1353.85C742.09 1354.34 742.505 1354.82 743.148 1355.3L750.771 1360.93C751.414 1361.41 751.996 1361.67 752.516 1361.7C753.036 1361.74 753.456 1361.68 753.775 1361.51C754.158 1361.4 754.492 1361.15 754.777 1360.76L768.38 1342.17C768.951 1341.39 769.246 1340.69 769.265 1340.06C769.285 1339.43 769.206 1338.9 769.027 1338.47C768.831 1337.92 768.476 1337.46 767.961 1337.08C768.476 1337.46 769.021 1337.67 769.597 1337.69C770.062 1337.74 770.593 1337.66 771.192 1337.46C771.79 1337.25 772.375 1336.76 772.946 1335.99L783.174 1322.36C783.697 1321.65 784.029 1321 784.169 1320.41C784.309 1319.82 784.353 1319.35 784.303 1319.02C784.236 1318.57 784.042 1318.23 783.72 1317.99L795.974 1327.05C795.459 1326.67 794.914 1326.47 794.338 1326.44C793.873 1326.39 793.33 1326.49 792.708 1326.73C792.085 1326.96 791.512 1327.43 790.989 1328.14L780.405 1342.25C779.741 1343.55 779.677 1344.65 780.211 1345.54C780.39 1345.97 780.737 1346.38 781.251 1346.76C780.753 1346.49 780.24 1346.31 779.711 1346.22C779.247 1346.17 778.751 1346.2 778.224 1346.31C777.697 1346.42 777.163 1346.77 776.623 1347.37L760.784 1368.79C759.276 1370.56 757.779 1371.64 756.294 1372.03C754.809 1372.43 753.393 1372.53 752.048 1372.33C750.462 1372.05 748.97 1371.44 747.571 1370.51L747.475 1370.44L735.028 1361.23L734.932 1361.16C733.628 1360.1 732.612 1358.85 731.882 1357.41C731.298 1356.19 730.96 1354.79 730.87 1353.23C730.779 1351.67 731.392 1349.94 732.707 1348.02L748.093 1327.02C748.616 1326.31 748.899 1325.62 748.943 1324.96C748.986 1324.29 748.918 1323.75 748.74 1323.32C748.544 1322.77 748.189 1322.31 747.674 1321.93Z" fill="#ffffff" fill-rule="evenodd" opacity="1" stroke="none"/>
</g>
<g id="Ebene-20" vectornator:layerName="Ebene 20">
<path clip-path="url(#TextBounds_13)" d="M796.045 1331.71C796.459 1330.93 796.639 1330.21 796.586 1329.55C796.532 1328.88 796.385 1328.35 796.145 1327.95C795.872 1327.44 795.453 1327.04 794.889 1326.74L820.084 1340.19C821.529 1341.05 822.681 1342.12 823.542 1343.39C824.229 1344.48 824.73 1345.79 825.048 1347.32C825.365 1348.85 825.048 1350.68 824.096 1352.8L824.202 1352.86L818.664 1363.23C818.25 1364.01 818.079 1364.71 818.152 1365.34C818.225 1365.97 818.381 1366.48 818.621 1366.88C818.894 1367.39 819.312 1367.79 819.877 1368.1C819.383 1367.83 818.903 1367.71 818.437 1367.74C818.009 1367.69 817.578 1367.73 817.145 1367.86C816.712 1367.99 816.274 1368.3 815.832 1368.79C815.794 1368.86 815.592 1369.07 815.225 1369.42C814.146 1370.93 812.992 1371.95 811.761 1372.47C810.53 1372.99 809.36 1373.27 808.249 1373.32L801.513 1398.42C801.202 1399.34 801.136 1400.15 801.315 1400.83C801.493 1401.52 801.738 1402.08 802.048 1402.52C802.392 1403.06 802.846 1403.49 803.41 1403.79L788.907 1396.04C789.472 1396.35 790.006 1396.45 790.509 1396.36C790.975 1396.33 791.419 1396.14 791.84 1395.77C792.261 1395.41 792.628 1394.77 792.938 1393.84L799.363 1370.34L789.2 1364.92L778.118 1385.93C777.666 1386.78 777.405 1387.48 777.337 1388.03C777.268 1388.59 777.319 1389.04 777.488 1389.41C777.62 1389.84 777.862 1390.15 778.215 1390.34L764.77 1383.16C765.335 1383.46 765.904 1383.59 766.478 1383.53C766.944 1383.51 767.459 1383.35 768.021 1383.06C768.583 1382.77 769.091 1382.2 769.543 1381.36L784.404 1353.51C784.819 1352.74 784.981 1352.01 784.892 1351.33C784.803 1350.64 784.638 1350.1 784.399 1349.7C784.126 1349.19 783.707 1348.79 783.142 1348.49C783.707 1348.79 784.276 1348.91 784.851 1348.86C785.316 1348.83 785.848 1348.69 786.446 1348.41C787.044 1348.14 787.569 1347.59 788.021 1346.74L796.045 1331.71ZM793.721 1356.45L804.731 1362.32C805.474 1362.63 806.106 1362.76 806.626 1362.72C807.146 1362.68 807.552 1362.56 807.844 1362.35C808.206 1362.18 808.5 1361.89 808.726 1361.46L814.377 1350.88C814.603 1350.45 814.685 1350.04 814.624 1349.65C814.634 1349.29 814.501 1348.9 814.226 1348.48C813.951 1348.07 813.479 1347.63 812.811 1347.19L801.801 1341.31L793.721 1356.45Z" fill="#ffffff" fill-rule="evenodd" opacity="1" stroke="none"/>
</g>
<g id="Ebene-23" vectornator:layerName="Ebene 23">
<path clip-path="url(#TextBounds_14)" d="M820.436 1376.42C820.766 1375.6 820.87 1374.87 820.746 1374.21C820.623 1373.56 820.421 1373.05 820.14 1372.67C819.816 1372.2 819.357 1371.84 818.764 1371.6C819.357 1371.84 819.936 1371.9 820.501 1371.78C820.962 1371.71 821.457 1371.5 821.986 1371.16C822.515 1370.81 822.959 1370.19 823.32 1369.3L827.802 1358.56C828.748 1356.44 829.909 1355.01 831.287 1354.27C832.664 1353.54 834.029 1353.1 835.382 1352.95C836.987 1352.83 838.583 1353.04 840.17 1353.6L858.009 1360.7C859.566 1361.33 860.74 1361.42 861.529 1360.96C861.946 1360.78 862.229 1360.51 862.38 1360.14L857.107 1373.15C857.257 1372.78 857.244 1372.39 857.068 1371.97C856.935 1371.66 856.655 1371.29 856.226 1370.85C855.797 1370.42 855.175 1370.04 854.359 1369.71L839.345 1363.62C838.573 1363.4 837.957 1363.32 837.496 1363.39C837.036 1363.47 836.671 1363.62 836.402 1363.86C836.06 1364.06 835.798 1364.39 835.618 1364.83L832.328 1372.95C831.968 1373.84 831.857 1374.6 831.995 1375.21C832.133 1375.83 832.343 1376.32 832.624 1376.7C832.948 1377.17 833.407 1377.53 834 1377.77C833.407 1377.53 832.828 1377.47 832.263 1377.59C831.802 1377.66 831.307 1377.87 830.778 1378.22C830.249 1378.56 829.805 1379.18 829.444 1380.07L820.747 1401.53C820.566 1401.98 820.527 1402.4 820.63 1402.78C820.658 1403.14 820.805 1403.52 821.07 1403.93C821.336 1404.34 821.839 1404.7 822.581 1405L834.147 1409.68L842.8 1388.33L839.619 1386.91L839.513 1380.78C839.473 1379.82 839.28 1378.96 838.934 1378.22C838.588 1377.47 838.201 1376.89 837.772 1376.45C837.299 1375.92 836.766 1375.53 836.173 1375.29L858.416 1384.3C857.823 1384.06 857.244 1384 856.679 1384.11C856.218 1384.19 855.723 1384.4 855.194 1384.74C854.665 1385.09 854.221 1385.71 853.86 1386.6L840.881 1418.63C840.521 1419.52 840.41 1420.27 840.548 1420.89C840.687 1421.5 840.896 1422 841.177 1422.37C841.501 1422.85 841.96 1423.21 842.553 1423.45L816.195 1412.77C814.668 1412.06 813.372 1411.11 812.308 1409.9C811.436 1408.85 810.762 1407.59 810.286 1406.1C809.81 1404.61 809.971 1402.78 810.768 1400.6L820.436 1376.42Z" fill="#ffffff" fill-rule="evenodd" opacity="1" stroke="none"/>
</g>
<g id="Ebene-24" vectornator:layerName="Ebene 24">
<path clip-path="url(#TextBounds_15)" d="M866.863 1368.73C867.126 1367.89 867.169 1367.15 866.992 1366.51C866.816 1365.87 866.573 1365.37 866.263 1365.03C865.9 1364.58 865.413 1364.26 864.802 1364.07L897.558 1374.31C898.474 1374.6 899.21 1374.72 899.766 1374.69C900.322 1374.65 900.763 1374.52 901.087 1374.28C901.488 1374.07 901.748 1373.78 901.868 1373.4L897.677 1386.8C897.796 1386.41 897.751 1386.02 897.541 1385.62C897.408 1385.24 897.129 1384.86 896.704 1384.48C896.279 1384.1 895.609 1383.76 894.693 1383.47L874.306 1377.1L870.08 1390.61L886.228 1395.66C887.832 1396.16 889.008 1396.15 889.758 1395.63C890.159 1395.42 890.419 1395.13 890.538 1394.75L886.383 1408.03C886.503 1407.65 886.457 1407.26 886.248 1406.86C886.09 1406.56 885.78 1406.21 885.317 1405.81C884.854 1405.42 884.203 1405.09 883.363 1404.82L867.214 1399.77L860.946 1419.82L881.905 1426.37C883.509 1426.87 884.685 1426.86 885.434 1426.34C885.835 1426.13 886.095 1425.84 886.215 1425.46L882.024 1438.86C882.144 1438.47 882.098 1438.08 881.888 1437.68C881.755 1437.31 881.457 1436.92 880.994 1436.52C880.531 1436.13 879.88 1435.8 879.04 1435.53L845.712 1425.11C846.322 1425.3 846.905 1425.32 847.458 1425.15C847.912 1425.04 848.388 1424.8 848.887 1424.41C849.385 1424.02 849.778 1423.37 850.065 1422.45L859.52 1392.21C859.807 1391.3 859.856 1390.54 859.668 1389.93C859.479 1389.33 859.23 1388.85 858.92 1388.51C858.557 1388.06 858.071 1387.74 857.46 1387.55C858.071 1387.74 858.653 1387.75 859.207 1387.59C859.66 1387.48 860.136 1387.23 860.635 1386.84C861.134 1386.45 861.526 1385.8 861.813 1384.88L866.863 1368.73Z" fill="#ffffff" fill-rule="evenodd" opacity="1" stroke="none"/>
</g>
<g id="Ebene-25" vectornator:layerName="Ebene 25">
<path clip-path="url(#TextBounds_16)" d="M906.026 1381.29C906.202 1380.43 906.17 1379.69 905.93 1379.07C905.689 1378.44 905.397 1377.98 905.053 1377.66C904.647 1377.25 904.13 1376.98 903.503 1376.85L931.484 1382.58C933.114 1382.99 934.523 1383.69 935.711 1384.67C936.68 1385.52 937.535 1386.63 938.274 1388.01C939.013 1389.38 939.229 1391.22 938.921 1393.53L939.038 1393.55L936.682 1405.07C936.506 1405.94 936.542 1406.66 936.791 1407.24C937.039 1407.82 937.335 1408.27 937.679 1408.58C938.085 1408.99 938.602 1409.26 939.229 1409.39C938.68 1409.28 938.186 1409.3 937.746 1409.46C937.322 1409.53 936.921 1409.7 936.544 1409.95C936.166 1410.19 935.835 1410.62 935.55 1411.21C935.534 1411.29 935.399 1411.55 935.146 1411.99C934.542 1413.74 933.725 1415.04 932.694 1415.89C931.662 1416.74 930.62 1417.35 929.567 1417.7L930.255 1443.69C930.22 1444.66 930.385 1445.45 930.751 1446.06C931.117 1446.66 931.511 1447.13 931.934 1447.46C932.418 1447.89 932.974 1448.16 933.601 1448.29L917.494 1445C918.121 1445.13 918.663 1445.07 919.119 1444.84C919.559 1444.69 919.929 1444.37 920.229 1443.9C920.529 1443.44 920.697 1442.71 920.732 1441.74L920.202 1417.38L908.916 1415.07L904.273 1438.38C904.081 1439.32 904.031 1440.06 904.122 1440.61C904.214 1441.16 904.393 1441.59 904.658 1441.88C904.907 1442.26 905.228 1442.49 905.62 1442.57L890.689 1439.52C891.316 1439.65 891.897 1439.6 892.431 1439.38C892.871 1439.23 893.319 1438.93 893.776 1438.5C894.233 1438.06 894.558 1437.37 894.75 1436.43L901.073 1405.51C901.25 1404.65 901.198 1403.9 900.918 1403.27C900.638 1402.64 900.327 1402.17 899.983 1401.86C899.577 1401.45 899.06 1401.18 898.433 1401.05C899.06 1401.18 899.641 1401.13 900.175 1400.92C900.615 1400.76 901.083 1400.47 901.579 1400.04C902.075 1399.61 902.42 1398.92 902.612 1397.98L906.026 1381.29ZM910.839 1405.67L923.066 1408.17C923.866 1408.25 924.509 1408.2 924.997 1408.01C925.484 1407.83 925.838 1407.59 926.059 1407.31C926.358 1407.05 926.556 1406.68 926.652 1406.21L929.056 1394.45C929.152 1393.98 929.115 1393.56 928.944 1393.2C928.851 1392.86 928.613 1392.52 928.23 1392.2C927.847 1391.88 927.272 1391.6 926.504 1391.36L914.277 1388.86L910.839 1405.67Z" fill="#ffffff" fill-rule="evenodd" opacity="1" stroke="none"/>
</g>
<g id="Ebene-26" vectornator:layerName="Ebene 26">
<path clip-path="url(#TextBounds_17)" d="M978.005 1412.02C977.557 1411.58 977.258 1411.04 977.107 1410.38C976.957 1409.73 976.826 1409.08 976.715 1408.43C976.611 1407.7 976.586 1406.98 976.641 1406.26L977.292 1397.76C977.548 1395.45 978.221 1393.74 979.31 1392.62C980.399 1391.5 981.566 1390.67 982.811 1390.12C984.302 1389.51 985.888 1389.23 987.569 1389.28L1006.83 1390.76C1008.51 1390.89 1009.65 1390.61 1010.27 1389.94C1010.61 1389.64 1010.8 1389.3 1010.83 1388.9L1009.75 1402.9C1009.78 1402.5 1009.65 1402.13 1009.36 1401.78C1009.14 1401.44 1008.77 1401.14 1008.23 1400.85C1007.69 1400.57 1006.98 1400.4 1006.1 1400.33L989.947 1399.09C989.143 1399.11 988.511 1399.24 988.051 1399.49C987.591 1399.73 987.269 1400.01 987.085 1400.32C986.821 1400.62 986.671 1401.01 986.634 1401.49L986.369 1404.96C986.43 1405.2 986.487 1405.51 986.539 1405.87C986.592 1406.24 986.805 1406.59 987.179 1406.94L992.712 1411.7C993.381 1412.39 994.035 1412.76 994.673 1412.81C995.311 1412.86 995.836 1412.82 996.247 1412.69C996.744 1412.49 997.25 1412.17 997.765 1411.73C997.403 1412.26 997.161 1412.8 997.039 1413.36C996.922 1413.83 996.941 1414.37 997.094 1414.98C997.248 1415.6 997.702 1416.21 998.457 1416.83L1007.8 1425.25C1008.56 1425.87 1008.94 1426.66 1008.94 1427.63C1008.95 1428.59 1008.93 1429.35 1008.89 1429.91L1007.68 1445.7C1007.34 1448 1006.65 1449.72 1005.6 1450.84C1004.55 1451.96 1003.41 1452.8 1002.16 1453.34C1000.67 1453.95 999.083 1454.23 997.402 1454.18L976.942 1452.62C975.985 1452.54 975.258 1452.61 974.761 1452.81C974.264 1453.01 973.884 1453.26 973.62 1453.56C973.276 1453.86 973.089 1454.21 973.059 1454.6L974.222 1439.41C974.174 1440.05 974.29 1440.62 974.573 1441.12C974.782 1441.54 975.112 1441.94 975.563 1442.34C976.014 1442.74 976.718 1442.97 977.675 1443.04L995.024 1444.37C995.822 1444.43 996.451 1444.34 996.911 1444.1C997.371 1443.85 997.693 1443.57 997.877 1443.27C998.141 1442.97 998.291 1442.58 998.328 1442.1L999.006 1433.24C999.079 1432.29 998.977 1431.52 998.701 1430.93C998.425 1430.35 998.213 1429.97 998.066 1429.8L990.737 1423.34C990.112 1423.14 989.576 1423.05 989.131 1423.1C988.687 1423.15 988.298 1423.24 987.967 1423.37C987.63 1423.59 987.289 1423.84 986.946 1424.14C987.216 1423.76 987.406 1423.37 987.516 1422.98C987.626 1422.58 987.678 1422.17 987.672 1421.72C987.666 1421.28 987.525 1420.77 987.248 1420.19L978.005 1412.02Z" fill="#ffffff" fill-rule="evenodd" opacity="1" stroke="none"/>
</g>
<g id="Ebene-27" vectornator:layerName="Ebene 27">
<path clip-path="url(#TextBounds_18)" d="M1015.12 1416.61C1015.76 1416.61 1016.32 1416.45 1016.8 1416.13C1017.2 1415.89 1017.58 1415.51 1017.94 1414.99C1018.3 1414.47 1018.48 1413.73 1018.48 1412.77L1018.6 1395.85C1018.6 1394.97 1018.4 1394.25 1018 1393.69C1017.6 1393.13 1017.2 1392.73 1016.8 1392.49C1016.32 1392.17 1015.76 1392.01 1015.12 1392.01L1030.36 1392.01C1029.96 1392.01 1029.6 1392.17 1029.28 1392.49C1028.56 1393.05 1028.2 1394.17 1028.2 1395.85L1028.2 1412.77C1028.2 1413.73 1028.38 1414.45 1028.74 1414.93C1029.1 1415.41 1029.48 1415.77 1029.88 1416.01C1030.36 1416.33 1030.92 1416.49 1031.56 1416.49C1030.92 1416.49 1030.36 1416.65 1029.88 1416.97C1029.48 1417.21 1029.1 1417.61 1028.74 1418.17C1028.38 1418.73 1028.2 1419.45 1028.2 1420.33L1028.2 1443.61C1028.2 1444.09 1028.32 1444.49 1028.56 1444.81C1028.72 1445.13 1029.02 1445.43 1029.46 1445.71C1029.9 1445.99 1030.52 1446.13 1031.32 1446.13L1040.8 1446.13C1041.6 1446.13 1042.22 1445.99 1042.66 1445.71C1043.1 1445.43 1043.4 1445.13 1043.56 1444.81C1043.8 1444.49 1043.92 1444.09 1043.92 1443.61L1043.8 1420.57C1043.8 1419.61 1043.62 1418.87 1043.26 1418.35C1042.9 1417.83 1042.52 1417.45 1042.12 1417.21C1041.64 1416.89 1041.08 1416.73 1040.44 1416.73C1041.08 1416.73 1041.64 1416.57 1042.12 1416.25C1042.52 1416.01 1042.9 1415.63 1043.26 1415.11C1043.62 1414.59 1043.8 1413.85 1043.8 1412.89L1043.92 1395.85C1043.92 1394.97 1043.8 1394.25 1043.56 1393.69C1043.32 1393.13 1043.08 1392.73 1042.84 1392.49C1042.52 1392.17 1042.16 1392.01 1041.76 1392.01L1057 1392.01C1056.36 1392.01 1055.8 1392.17 1055.32 1392.49C1054.92 1392.73 1054.54 1393.13 1054.18 1393.69C1053.82 1394.25 1053.64 1394.97 1053.64 1395.85L1053.52 1413.49C1053.76 1414.93 1054.36 1415.85 1055.32 1416.25C1055.72 1416.49 1056.24 1416.61 1056.88 1416.61C1056.32 1416.69 1055.8 1416.85 1055.32 1417.09C1054.92 1417.33 1054.54 1417.65 1054.18 1418.05C1053.82 1418.45 1053.6 1419.05 1053.52 1419.85L1053.52 1446.49C1053.36 1448.81 1052.8 1450.57 1051.84 1451.77C1050.88 1452.97 1049.8 1453.89 1048.6 1454.53C1047.16 1455.25 1045.6 1455.65 1043.92 1455.73L1043.8 1455.73L1028.32 1455.73L1028.2 1455.73C1026.52 1455.65 1024.96 1455.25 1023.52 1454.53C1022.32 1453.89 1021.22 1452.97 1020.22 1451.77C1019.22 1450.57 1018.68 1448.81 1018.6 1446.49L1018.48 1420.45C1018.48 1419.57 1018.3 1418.85 1017.94 1418.29C1017.58 1417.73 1017.2 1417.33 1016.8 1417.09C1016.32 1416.77 1015.76 1416.61 1015.12 1416.61Z" fill="#ffffff" fill-rule="evenodd" opacity="1" stroke="none"/>
</g>
<g id="Ebene-28" vectornator:layerName="Ebene 28">
<path clip-path="url(#TextBounds_19)" d="M1063.95 1455.01C1064.58 1454.95 1065.13 1454.74 1065.57 1454.37C1065.95 1454.1 1066.29 1453.68 1066.6 1453.13C1066.91 1452.58 1067.02 1451.82 1066.92 1450.87L1063.82 1418.62C1063.6 1417.92 1063.3 1417.38 1062.95 1417.01C1062.59 1416.65 1062.21 1416.4 1061.79 1416.28C1061.37 1416.08 1060.88 1415.97 1060.31 1415.94C1060.87 1415.89 1061.34 1415.72 1061.71 1415.44C1062.09 1415.25 1062.43 1414.93 1062.71 1414.5C1062.99 1414.08 1063.17 1413.5 1063.26 1412.76L1061.54 1394.85C1061.46 1393.97 1061.21 1393.27 1060.8 1392.75C1060.38 1392.22 1059.97 1391.86 1059.55 1391.66C1059.04 1391.39 1058.47 1391.28 1057.83 1391.35L1085.78 1388.66C1087.46 1388.58 1089.05 1388.83 1090.55 1389.41C1091.81 1389.93 1092.97 1390.74 1094.04 1391.84C1095.11 1392.95 1095.84 1394.64 1096.22 1396.94L1097.54 1410.67C1097.56 1411.72 1097.51 1412.63 1097.38 1413.4C1097.25 1414.18 1097.02 1414.9 1096.68 1415.58C1097.86 1416.11 1098.99 1416.95 1100.06 1418.09C1101.13 1419.23 1101.81 1420.83 1102.09 1422.9L1104.03 1441.88C1104.18 1444.19 1103.79 1446.02 1102.87 1447.35C1101.96 1448.69 1100.93 1449.71 1099.79 1450.42C1098.66 1451.13 1097.59 1451.58 1096.61 1451.75C1095.62 1451.93 1095.12 1452.02 1095.12 1452.02L1063.95 1455.01ZM1073.24 1416.26L1085.19 1415.12C1085.98 1415.04 1086.59 1414.86 1087 1414.58C1087.42 1414.3 1087.7 1414.03 1087.83 1413.78C1088.04 1413.44 1088.13 1413.11 1088.1 1412.79L1086.95 1400.84C1086.9 1400.37 1086.75 1399.98 1086.48 1399.68C1086.29 1399.38 1085.96 1399.11 1085.5 1398.87C1085.03 1398.64 1084.4 1398.52 1083.59 1398.51L1071.65 1399.66L1073.24 1416.26ZM1075.93 1444.22L1091.22 1442.75C1092.02 1442.67 1092.62 1442.47 1093.03 1442.15C1093.44 1441.83 1093.71 1441.5 1093.84 1441.17C1094.05 1440.83 1094.13 1440.42 1094.08 1439.94L1092.82 1426.8C1092.77 1426.24 1092.61 1425.82 1092.34 1425.52C1092.15 1425.22 1091.82 1424.97 1091.36 1424.77C1090.9 1424.57 1090.27 1424.47 1089.46 1424.47L1074.17 1425.94L1075.93 1444.22Z" fill="#ffffff" fill-rule="evenodd" opacity="1" stroke="none"/>
</g>
<g id="Ebene-29" vectornator:layerName="Ebene 29">
<path clip-path="url(#TextBounds_20)" d="M1104.4 1408.6C1103.86 1408.29 1103.43 1407.84 1103.12 1407.25C1102.81 1406.65 1102.52 1406.06 1102.25 1405.45C1101.96 1404.78 1101.75 1404.08 1101.62 1403.37L1100.09 1394.99C1099.75 1392.69 1099.97 1390.87 1100.74 1389.51C1101.51 1388.15 1102.42 1387.04 1103.49 1386.2C1104.78 1385.23 1106.24 1384.56 1107.88 1384.18L1126.88 1380.71C1128.54 1380.41 1129.57 1379.85 1130 1379.05C1130.25 1378.67 1130.35 1378.29 1130.27 1377.9L1132.79 1391.71C1132.72 1391.32 1132.5 1390.99 1132.13 1390.73C1131.83 1390.46 1131.39 1390.26 1130.8 1390.12C1130.2 1389.99 1129.47 1390 1128.61 1390.16L1112.67 1393.06C1111.9 1393.28 1111.32 1393.57 1110.94 1393.93C1110.55 1394.28 1110.31 1394.63 1110.21 1394.97C1110.03 1395.33 1109.99 1395.75 1110.07 1396.22L1110.7 1399.64C1110.82 1399.86 1110.95 1400.15 1111.1 1400.49C1111.24 1400.83 1111.54 1401.12 1111.99 1401.36L1118.55 1404.55C1119.37 1405.05 1120.1 1405.25 1120.73 1405.13C1121.36 1405.02 1121.85 1404.85 1122.22 1404.62C1122.65 1404.29 1123.06 1403.85 1123.44 1403.3C1123.23 1403.9 1123.13 1404.49 1123.15 1405.06C1123.16 1405.54 1123.32 1406.06 1123.62 1406.62C1123.93 1407.17 1124.52 1407.65 1125.41 1408.06L1136.59 1413.83C1137.47 1414.24 1138.04 1414.9 1138.29 1415.83C1138.54 1416.76 1138.72 1417.5 1138.82 1418.06L1141.66 1433.64C1141.92 1435.95 1141.69 1437.78 1140.96 1439.13C1140.23 1440.49 1139.33 1441.59 1138.27 1442.43C1136.98 1443.4 1135.52 1444.07 1133.88 1444.45L1113.69 1448.13C1112.75 1448.31 1112.06 1448.55 1111.63 1448.88C1111.2 1449.2 1110.9 1449.54 1110.72 1449.9C1110.46 1450.27 1110.37 1450.65 1110.44 1451.04L1107.7 1436.05C1107.82 1436.68 1108.08 1437.2 1108.48 1437.62C1108.79 1437.97 1109.21 1438.28 1109.75 1438.55C1110.28 1438.81 1111.02 1438.86 1111.97 1438.69L1129.08 1435.57C1129.87 1435.42 1130.46 1435.17 1130.84 1434.82C1131.22 1434.47 1131.46 1434.12 1131.56 1433.77C1131.74 1433.41 1131.79 1433 1131.7 1432.53L1130.11 1423.79C1129.94 1422.85 1129.64 1422.13 1129.23 1421.63C1128.81 1421.14 1128.51 1420.83 1128.32 1420.7L1119.6 1416.32C1118.94 1416.27 1118.4 1416.33 1117.98 1416.49C1117.56 1416.65 1117.21 1416.83 1116.92 1417.05C1116.65 1417.34 1116.39 1417.67 1116.13 1418.05C1116.29 1417.61 1116.38 1417.19 1116.39 1416.78C1116.39 1416.37 1116.34 1415.96 1116.22 1415.53C1116.1 1415.1 1115.84 1414.64 1115.42 1414.15L1104.4 1408.6Z" fill="#ffffff" fill-rule="evenodd" opacity="1" stroke="none"/>
</g>
<g id="Ebene-30" vectornator:layerName="Ebene 30">
<path clip-path="url(#TextBounds_21)" d="M1161.46 1375.23C1161.07 1374.36 1160.6 1373.76 1160.06 1373.43C1159.52 1373.1 1159.02 1372.91 1158.55 1372.86C1157.98 1372.76 1157.41 1372.85 1156.82 1373.11L1188.08 1358.93C1188.95 1358.54 1189.59 1358.14 1189.98 1357.75C1190.37 1357.35 1190.61 1356.96 1190.7 1356.57C1190.86 1356.14 1190.86 1355.75 1190.7 1355.39L1196.45 1368.19C1196.29 1367.83 1195.99 1367.56 1195.57 1367.4C1195.25 1367.28 1194.81 1367.22 1194.24 1367.21C1193.66 1367.21 1192.94 1367.4 1192.06 1367.8L1172.58 1376.55L1178.39 1389.47L1193.77 1382.42C1195.3 1381.73 1196.18 1380.95 1196.39 1380.06C1196.55 1379.64 1196.55 1379.24 1196.39 1378.88L1202.14 1391.68C1201.98 1391.32 1201.68 1391.06 1201.26 1390.9C1200.94 1390.77 1200.48 1390.72 1199.87 1390.73C1199.26 1390.74 1198.56 1390.93 1197.75 1391.29L1182.32 1398.22L1193.35 1422.47C1193.74 1423.35 1194.21 1423.95 1194.75 1424.28C1195.3 1424.6 1195.8 1424.79 1196.26 1424.85C1196.83 1424.94 1197.41 1424.86 1197.99 1424.6L1182.99 1431.34C1183.58 1431.08 1184.02 1430.7 1184.33 1430.21C1184.6 1429.83 1184.79 1429.33 1184.9 1428.7C1185.02 1428.08 1184.88 1427.33 1184.49 1426.46L1171.6 1397.78C1171.2 1396.91 1170.74 1396.3 1170.19 1395.98C1169.65 1395.65 1169.15 1395.46 1168.69 1395.4C1168.12 1395.31 1167.54 1395.39 1166.96 1395.66C1167.54 1395.39 1167.99 1395.02 1168.29 1394.53C1168.56 1394.15 1168.75 1393.64 1168.87 1393.02C1168.98 1392.4 1168.84 1391.65 1168.45 1390.78L1161.46 1375.23Z" fill="#ffffff" fill-rule="evenodd" opacity="1" stroke="none"/>
</g>
<g id="Ebene-31" vectornator:layerName="Ebene 31">
<path clip-path="url(#TextBounds_22)" d="M1198.58 1360.19C1198.14 1359.42 1197.63 1358.89 1197.04 1358.58C1196.45 1358.27 1195.92 1358.11 1195.46 1358.1C1194.88 1358.05 1194.31 1358.19 1193.76 1358.51L1218.6 1344.41C1220.1 1343.65 1221.62 1343.25 1223.16 1343.21C1224.45 1343.21 1225.82 1343.49 1227.29 1344.04C1228.75 1344.59 1230.12 1345.83 1231.4 1347.77L1231.51 1347.71L1237.31 1357.94C1237.75 1358.71 1238.25 1359.23 1238.82 1359.5C1239.39 1359.78 1239.9 1359.92 1240.37 1359.93C1240.95 1359.97 1241.51 1359.84 1242.07 1359.52C1241.58 1359.8 1241.22 1360.14 1240.99 1360.54C1240.73 1360.88 1240.53 1361.27 1240.41 1361.7C1240.29 1362.14 1240.32 1362.67 1240.49 1363.31C1240.53 1363.38 1240.6 1363.66 1240.7 1364.16C1241.4 1365.88 1241.64 1367.4 1241.42 1368.72C1241.21 1370.04 1240.82 1371.18 1240.26 1372.14L1257.87 1391.26C1258.48 1392.01 1259.12 1392.5 1259.8 1392.71C1260.47 1392.93 1261.08 1393.02 1261.61 1393C1262.26 1393 1262.86 1392.84 1263.42 1392.52L1249.12 1400.64C1249.67 1400.32 1250.05 1399.93 1250.24 1399.45C1250.47 1399.04 1250.54 1398.56 1250.46 1398.01C1250.37 1397.46 1250.03 1396.81 1249.41 1396.05L1232.99 1378.05L1222.97 1383.74L1234.8 1404.34C1235.27 1405.18 1235.73 1405.77 1236.16 1406.13C1236.59 1406.48 1237 1406.68 1237.4 1406.73C1237.83 1406.85 1238.23 1406.81 1238.57 1406.62L1225.32 1414.14C1225.88 1413.82 1226.28 1413.41 1226.54 1412.89C1226.77 1412.48 1226.92 1411.97 1226.97 1411.34C1227.03 1410.71 1226.82 1409.97 1226.35 1409.14L1210.77 1381.69C1210.34 1380.92 1209.81 1380.4 1209.19 1380.11C1208.56 1379.82 1208.02 1379.67 1207.55 1379.66C1206.97 1379.61 1206.41 1379.75 1205.85 1380.07C1206.41 1379.75 1206.82 1379.34 1207.08 1378.82C1207.31 1378.41 1207.47 1377.89 1207.56 1377.24C1207.65 1376.59 1207.46 1375.84 1206.98 1375.01L1198.58 1360.19ZM1218.24 1375.39L1229.09 1369.23C1229.75 1368.76 1230.2 1368.3 1230.44 1367.84C1230.69 1367.38 1230.8 1366.97 1230.78 1366.61C1230.83 1366.22 1230.74 1365.81 1230.5 1365.39L1224.58 1354.96C1224.34 1354.54 1224.04 1354.25 1223.67 1354.09C1223.38 1353.89 1222.98 1353.79 1222.48 1353.8C1221.98 1353.81 1221.36 1353.98 1220.62 1354.3L1209.77 1360.46L1218.24 1375.39Z" fill="#ffffff" fill-rule="evenodd" opacity="1" stroke="none"/>
</g>
<g id="Ebene-32" vectornator:layerName="Ebene 32">
<path clip-path="url(#TextBounds_23)" d="M1239.08 1335.02C1238.61 1334.27 1238.07 1333.76 1237.47 1333.48C1236.87 1333.19 1236.33 1333.06 1235.87 1333.07C1235.29 1333.05 1234.73 1333.21 1234.19 1333.56L1248.11 1324.81C1247.57 1325.15 1247.18 1325.58 1246.94 1326.11C1246.73 1326.53 1246.62 1327.07 1246.62 1327.73C1246.61 1328.4 1246.84 1329.1 1247.31 1329.85L1256.63 1344.68C1257.16 1345.39 1257.67 1345.82 1258.16 1345.99C1258.64 1346.16 1259.12 1346.24 1259.58 1346.23C1260.09 1346.29 1260.62 1346.15 1261.16 1345.81C1260.62 1346.15 1260.24 1346.53 1260.03 1346.94C1259.36 1347.83 1259.4 1348.94 1260.14 1350.27L1277.24 1377.51C1277.76 1378.32 1278.3 1378.85 1278.88 1379.1C1279.46 1379.35 1279.99 1379.47 1280.45 1379.46C1281.03 1379.47 1281.59 1379.31 1282.13 1378.97L1268.21 1387.72C1268.75 1387.38 1269.14 1386.94 1269.38 1386.42C1269.59 1386 1269.71 1385.48 1269.74 1384.84C1269.77 1384.21 1269.52 1383.49 1269.01 1382.68L1252.12 1356.02C1251.66 1355.27 1251.12 1354.76 1250.52 1354.47C1249.92 1354.19 1249.38 1354.05 1248.91 1354.06C1248.34 1354.05 1247.78 1354.21 1247.24 1354.55C1247.78 1354.21 1248.17 1353.78 1248.4 1353.25C1248.62 1352.84 1248.73 1352.31 1248.76 1351.68C1248.79 1351.05 1248.55 1350.33 1248.04 1349.51L1239.08 1335.02Z" fill="#ffffff" fill-rule="evenodd" opacity="1" stroke="none"/>
</g>
<g id="Ebene-33" vectornator:layerName="Ebene 33">
<path clip-path="url(#TextBounds_24)" d="M1256.77 1323.54C1256.26 1322.82 1255.7 1322.34 1255.08 1322.09C1254.46 1321.84 1253.92 1321.73 1253.46 1321.77C1252.88 1321.78 1252.33 1321.98 1251.81 1322.35L1279.82 1302.51C1280.6 1301.96 1281.15 1301.45 1281.46 1300.99C1281.77 1300.52 1281.93 1300.09 1281.94 1299.69C1282.01 1299.24 1281.94 1298.86 1281.7 1298.53L1289.82 1309.99C1289.59 1309.66 1289.25 1309.46 1288.8 1309.39C1288.42 1309.26 1287.95 1309.25 1287.39 1309.36C1286.82 1309.46 1286.15 1309.79 1285.37 1310.35L1267.93 1322.69L1276.12 1334.25L1289.93 1324.47C1291.3 1323.5 1292 1322.56 1292.04 1321.65C1292.12 1321.2 1292.04 1320.81 1291.81 1320.49L1299.86 1331.85C1299.62 1331.52 1299.29 1331.32 1298.84 1331.24C1298.51 1331.19 1298.04 1331.22 1297.44 1331.35C1296.85 1331.48 1296.19 1331.8 1295.47 1332.31L1281.66 1342.08L1293.8 1359.22L1311.72 1346.53C1313.09 1345.56 1313.8 1344.62 1313.84 1343.71C1313.92 1343.26 1313.84 1342.88 1313.61 1342.55L1321.72 1354.01C1321.49 1353.68 1321.15 1353.48 1320.71 1353.4C1320.32 1353.28 1319.84 1353.28 1319.24 1353.41C1318.64 1353.54 1317.99 1353.86 1317.27 1354.37L1288.77 1374.55C1289.29 1374.18 1289.66 1373.72 1289.86 1373.18C1290.05 1372.76 1290.14 1372.23 1290.14 1371.59C1290.13 1370.96 1289.85 1370.25 1289.29 1369.47L1270.99 1343.61C1270.43 1342.83 1269.86 1342.33 1269.26 1342.12C1268.67 1341.9 1268.14 1341.81 1267.67 1341.84C1267.1 1341.86 1266.55 1342.05 1266.03 1342.42C1266.55 1342.05 1266.91 1341.6 1267.12 1341.06C1267.31 1340.63 1267.4 1340.1 1267.39 1339.47C1267.38 1338.84 1267.1 1338.13 1266.55 1337.35L1256.77 1323.54Z" fill="#ffffff" fill-rule="evenodd" opacity="1" stroke="none"/>
</g>
<g id="Ebene-34" vectornator:layerName="Ebene 34">
<path clip-path="url(#TextBounds_25)" d="M1300.79 1315.47C1300.16 1315.44 1299.58 1315.24 1299.03 1314.85C1298.49 1314.46 1297.96 1314.05 1297.44 1313.64C1296.88 1313.16 1296.38 1312.64 1295.95 1312.06L1290.81 1305.27C1289.47 1303.37 1288.84 1301.64 1288.91 1300.08C1288.99 1298.52 1289.31 1297.12 1289.88 1295.89C1290.59 1294.44 1291.6 1293.18 1292.89 1292.11L1308.3 1280.45C1309.64 1279.44 1310.31 1278.47 1310.32 1277.56C1310.39 1277.11 1310.3 1276.73 1310.06 1276.41L1318.53 1287.61C1318.29 1287.29 1317.94 1287.1 1317.49 1287.04C1317.11 1286.93 1316.62 1286.94 1316.03 1287.09C1315.44 1287.24 1314.79 1287.58 1314.09 1288.11L1301.17 1297.88C1300.58 1298.43 1300.19 1298.94 1300.01 1299.43C1299.83 1299.92 1299.77 1300.34 1299.84 1300.69C1299.84 1301.09 1299.98 1301.49 1300.27 1301.87L1302.37 1304.64C1302.58 1304.79 1302.83 1304.98 1303.11 1305.22C1303.39 1305.46 1303.79 1305.58 1304.3 1305.6L1311.59 1305.49C1312.55 1305.57 1313.29 1305.41 1313.8 1305.03C1314.31 1304.64 1314.68 1304.26 1314.9 1303.89C1315.14 1303.41 1315.3 1302.84 1315.4 1302.16C1315.48 1302.8 1315.66 1303.37 1315.93 1303.87C1316.16 1304.3 1316.53 1304.69 1317.05 1305.05C1317.57 1305.41 1318.32 1305.57 1319.3 1305.53L1331.87 1305.65C1332.85 1305.61 1333.66 1305.95 1334.3 1306.67C1334.95 1307.39 1335.44 1307.97 1335.77 1308.42L1345.33 1321.05C1346.6 1322.99 1347.22 1324.74 1347.18 1326.27C1347.14 1327.81 1346.83 1329.19 1346.26 1330.43C1345.54 1331.87 1344.54 1333.13 1343.25 1334.21L1326.89 1346.59C1326.12 1347.17 1325.62 1347.7 1325.38 1348.18C1325.14 1348.66 1325.02 1349.1 1325.03 1349.5C1324.96 1349.95 1325.05 1350.33 1325.29 1350.65L1316.1 1338.5C1316.49 1339.01 1316.95 1339.36 1317.5 1339.55C1317.93 1339.72 1318.45 1339.81 1319.05 1339.81C1319.65 1339.8 1320.33 1339.51 1321.09 1338.93L1334.97 1328.44C1335.61 1327.95 1336.02 1327.47 1336.2 1326.98C1336.38 1326.49 1336.44 1326.07 1336.37 1325.72C1336.37 1325.32 1336.23 1324.93 1335.94 1324.54L1330.58 1317.46C1330 1316.7 1329.41 1316.19 1328.82 1315.93C1328.23 1315.68 1327.82 1315.54 1327.6 1315.51L1317.83 1315.52C1317.22 1315.78 1316.77 1316.08 1316.46 1316.4C1316.16 1316.73 1315.93 1317.06 1315.77 1317.38C1315.66 1317.76 1315.57 1318.18 1315.51 1318.63C1315.46 1318.16 1315.35 1317.75 1315.17 1317.38C1314.99 1317.01 1314.76 1316.67 1314.46 1316.34C1314.16 1316.01 1313.72 1315.72 1313.12 1315.47L1300.79 1315.47Z" fill="#ffffff" fill-rule="evenodd" opacity="1" stroke="none"/>
</g>
<g id="Ebene-35" vectornator:layerName="Ebene 35">
<path d="M782.884 721.634L782.884 721.634C794.892 721.634 804.627 731.308 804.627 743.241L804.627 743.241C804.627 755.175 794.892 764.848 782.884 764.848L782.884 764.848C770.876 764.848 761.142 755.175 761.142 743.241L761.142 743.241C761.142 731.308 770.876 721.634 782.884 721.634Z" fill="#ffffff" fill-rule="evenodd" opacity="1" stroke="none"/>
</g>
<g id="Ebene-35-kopieren" vectornator:layerName="Ebene 35 kopieren">
<path d="M1214.11 699.242L1214.11 699.242C1226.12 699.242 1235.86 708.916 1235.86 720.849L1235.86 720.849C1235.86 732.783 1226.12 742.457 1214.11 742.457L1214.11 742.457C1202.1 742.457 1192.37 732.783 1192.37 720.849L1192.37 720.849C1192.37 708.916 1202.1 699.242 1214.11 699.242Z" fill="#ffffff" fill-rule="evenodd" opacity="1" stroke="none"/>
</g>
<g id="Ebene-36" vectornator:layerName="Ebene 36">
<path d="M957.197 1408.6L957.599 1408.6C962.399 1408.6 966.289 1412.52 966.289 1417.37L966.289 1417.37C966.289 1422.21 962.399 1426.13 957.599 1426.13L957.197 1426.13C952.397 1426.13 948.507 1422.21 948.507 1417.37L948.507 1417.37C948.507 1412.52 952.397 1408.6 957.197 1408.6Z" fill="#ffffff" fill-rule="evenodd" opacity="1" stroke="none"/>
</g>
<g id="Ebene-36-kopieren" vectornator:layerName="Ebene 36 kopieren">
<path d="M1153.52 1393.91L1153.92 1393.91C1158.72 1393.91 1162.61 1397.83 1162.61 1402.68L1162.61 1402.68C1162.61 1407.52 1158.72 1411.44 1153.92 1411.44L1153.52 1411.44C1148.72 1411.44 1144.83 1407.52 1144.83 1402.68L1144.83 1402.68C1144.83 1397.83 1148.72 1393.91 1153.52 1393.91Z" fill="#ffffff" fill-rule="evenodd" opacity="1" stroke="none"/>
</g>
</svg>
