<svg width="365" height="253" viewBox="0 0 365 253" fill="none" xmlns="http://www.w3.org/2000/svg">
<path d="M0.673611 19.4143H364.327V245.815C364.327 249.411 361.411 252.326 357.815 252.326H7.18519C3.58895 252.326 0.673611 249.411 0.673611 245.815V19.4143Z" stroke="#3C64B1" stroke-width="1.34722"/>
<path d="M7.18518 0.673611H357.815C361.411 0.673611 364.326 3.58894 364.326 7.18518V22.7523H0.673611V7.18519C0.673611 3.58895 3.58894 0.673611 7.18518 0.673611Z" fill="white" stroke="#03045E" stroke-width="1.34722"/>
<path fill-rule="evenodd" clip-rule="evenodd" d="M30.4643 14.6412C32.0516 14.6412 33.3384 13.3301 33.3384 11.7129C33.3384 10.0957 32.0516 8.78467 30.4643 8.78467C28.8771 8.78467 27.5903 10.0957 27.5903 11.7129C27.5903 13.3301 28.8771 14.6412 30.4643 14.6412Z" fill="white" stroke="#3C64B1" stroke-width="1.34722"/>
<path fill-rule="evenodd" clip-rule="evenodd" d="M20.1182 14.6412C21.7054 14.6412 22.9922 13.3301 22.9922 11.7129C22.9922 10.0957 21.7054 8.78467 20.1182 8.78467C18.5309 8.78467 17.2441 10.0957 17.2441 11.7129C17.2441 13.3301 18.5309 14.6412 20.1182 14.6412Z" fill="white" stroke="#3C64B1" stroke-width="1.34722"/>
<path fill-rule="evenodd" clip-rule="evenodd" d="M9.77148 14.6412C11.3588 14.6412 12.6455 13.3301 12.6455 11.7129C12.6455 10.0957 11.3588 8.78467 9.77148 8.78467C8.1842 8.78467 6.89746 10.0957 6.89746 11.7129C6.89746 13.3301 8.1842 14.6412 9.77148 14.6412Z" fill="white" stroke="#3C64B1" stroke-width="1.34722"/>
</svg>
